<svg width="231" height="50" viewBox="0 0 231 50" fill="none" xmlns="http://www.w3.org/2000/svg">
<g clip-path="url(#clip0_60_768)">
<path d="M100.869 44.7591H100.426V47.3792H98.7776V41.0507H100.426V43.746L100.818 43.5718L102.3 41.0507H104.063L102.529 43.457L101.88 43.9359L102.593 44.4306L104.3 47.3792H102.414L100.869 44.7591ZM108.801 42.5072H107.545C107.493 43.1048 107.434 43.7024 107.367 44.2921C107.299 44.8818 107.192 45.4122 107.046 45.8792C106.895 46.3502 106.697 46.7301 106.444 47.019C106.19 47.3119 105.861 47.4544 105.453 47.4544C104.966 47.4544 104.617 47.3911 104.415 47.2684L104.617 45.9267C104.752 45.9742 104.879 46.0019 104.997 46.0019C105.168 46.0019 105.314 45.9306 105.441 45.7842C105.568 45.6417 105.675 45.3805 105.766 45.0085C105.853 44.6365 105.925 44.1259 105.98 43.4887C106.035 42.8475 106.075 42.0362 106.103 41.0507H110.449V47.3792H108.801V42.5072ZM115.694 44.494L115.758 43.5956H115.718L115.175 44.5177L112.917 47.3792H111.879V41.0507H113.527V44.0626L113.452 44.9254H113.499L114.018 44.027L116.3 41.0507H117.338V47.3792H115.694V44.494ZM122.496 44.8858H120.432V47.3792H118.784V41.0507H120.432V43.4293H122.496V41.0507H124.144V47.3792H122.496V44.8858ZM129.402 44.494L129.465 43.5956H129.429L128.883 44.5177L126.628 47.3792H125.591V41.0507H127.235V44.0626L127.159 44.9254H127.211L127.73 44.027L130.012 41.0507H131.05V47.3792H129.402V44.494ZM134.584 44.7591H134.144V47.3792H132.496V41.0507H134.144V43.746L134.536 43.5718L136.018 41.0507H137.777L136.244 43.457L135.598 43.9359L136.307 44.4306L138.018 47.3792H136.133L134.584 44.7591ZM138.652 41.4188C138.989 41.2644 139.393 41.1457 139.857 41.0586C140.32 40.9676 140.807 40.9241 141.315 40.9241C141.754 40.9241 142.119 40.9755 142.416 41.0824C142.713 41.1892 142.947 41.3396 143.121 41.5336C143.291 41.7275 143.414 41.957 143.486 42.2301C143.557 42.4993 143.597 42.8 143.597 43.1404C143.597 43.5124 143.581 43.8845 143.557 44.2605C143.533 44.6365 143.517 45.0045 143.513 45.3686C143.509 45.7288 143.517 46.081 143.545 46.4254C143.569 46.7657 143.632 47.0903 143.735 47.3911H142.392L142.127 46.5203H142.059C141.893 46.7816 141.659 47.0071 141.358 47.1971C141.057 47.3871 140.673 47.4821 140.197 47.4821C139.904 47.4821 139.639 47.4385 139.401 47.3475C139.163 47.2604 138.961 47.1338 138.791 46.9676C138.625 46.8053 138.494 46.6114 138.399 46.3858C138.308 46.1641 138.26 45.9109 138.26 45.6338C138.26 45.2459 138.347 44.9175 138.522 44.6523C138.692 44.3871 138.942 44.1694 139.266 44.0072C139.591 43.8409 139.979 43.7301 140.435 43.6668C140.887 43.6035 141.39 43.5837 141.948 43.6074C142.008 43.1365 141.972 42.7961 141.845 42.5903C141.719 42.3805 141.437 42.2776 140.998 42.2776C140.669 42.2776 140.32 42.3132 139.952 42.3805C139.583 42.4478 139.282 42.5349 139.045 42.6457L138.652 41.4188ZM140.744 46.1285C141.073 46.1285 141.334 46.0533 141.529 45.9069C141.723 45.7565 141.865 45.5982 141.96 45.432V44.6087C141.699 44.581 141.445 44.5771 141.208 44.5969C140.966 44.6127 140.752 44.6483 140.566 44.7077C140.38 44.7671 140.233 44.8541 140.122 44.961C140.011 45.0718 139.96 45.2103 139.96 45.3805C139.96 45.618 140.027 45.8 140.166 45.9306C140.308 46.0612 140.498 46.1285 140.744 46.1285ZM147.879 44.2169C147.879 43.1444 148.141 42.3172 148.664 41.7394C149.187 41.1615 149.923 40.8726 150.87 40.8726C151.373 40.8726 151.813 40.9557 152.186 41.114C152.558 41.2763 152.867 41.5019 153.113 41.7908C153.358 42.0837 153.54 42.4359 153.663 42.8475C153.786 43.2631 153.845 43.7182 153.845 44.2169C153.845 45.2855 153.588 46.1127 153.065 46.6905C152.546 47.2684 151.813 47.5573 150.87 47.5573C150.363 47.5573 149.923 47.4781 149.551 47.3159C149.179 47.1575 148.87 46.932 148.62 46.6391C148.37 46.3502 148.184 45.9979 148.061 45.5824C147.939 45.1707 147.879 44.7116 147.879 44.2169ZM149.575 44.2169C149.575 44.494 149.602 44.7512 149.654 44.9887C149.702 45.2262 149.777 45.432 149.88 45.6101C149.983 45.7842 150.114 45.9227 150.28 46.0177C150.442 46.1167 150.64 46.1641 150.87 46.1641C151.298 46.1641 151.619 46.0098 151.833 45.6971C152.043 45.3845 152.15 44.8897 152.15 44.2169C152.15 43.6351 152.051 43.1642 151.857 42.804C151.663 42.4439 151.334 42.2658 150.87 42.2658C150.462 42.2658 150.145 42.4201 149.919 42.7209C149.69 43.0256 149.575 43.5243 149.575 44.2169ZM156.278 44.1417L154.376 41.0507H156.341L157.165 42.4043L157.522 43.2908L157.902 42.4043L158.762 41.0507H160.549L158.635 44.0903L160.676 47.3792H158.762L157.787 45.8594L157.407 44.9254L157.003 45.8594L156.024 47.3792H154.226L156.278 44.1417ZM161.5 41.0507H162.704L162.894 41.8106H162.946C163.163 41.49 163.425 41.2526 163.722 41.1022C164.023 40.9518 164.388 40.8726 164.819 40.8726C165.612 40.8726 166.21 41.1259 166.606 41.6286C167.002 42.1312 167.2 42.9386 167.2 44.0507C167.2 44.5929 167.137 45.0797 167.01 45.5151C166.884 45.9465 166.697 46.3185 166.448 46.6193C166.198 46.924 165.893 47.1575 165.537 47.3159C165.176 47.4781 164.764 47.5573 164.3 47.5573C164.039 47.5573 163.821 47.5375 163.655 47.5019C163.484 47.4623 163.314 47.4029 163.148 47.3159V49.9121H161.5V41.0507ZM164.324 42.2658C164.003 42.2658 163.754 42.3449 163.572 42.5072C163.389 42.6655 163.247 42.9069 163.148 43.2275V45.8594C163.266 45.9544 163.393 46.0296 163.532 46.081C163.671 46.1364 163.857 46.1641 164.083 46.1641C164.558 46.1641 164.911 45.9979 165.148 45.6655C165.386 45.333 165.505 44.7789 165.505 44.0151C165.505 43.457 165.41 43.0256 165.224 42.7209C165.037 42.4201 164.74 42.2658 164.324 42.2658ZM168.306 41.4188C168.643 41.2644 169.043 41.1457 169.506 41.0586C169.974 40.9676 170.457 40.9241 170.964 40.9241C171.404 40.9241 171.772 40.9755 172.065 41.0824C172.363 41.1892 172.596 41.3396 172.771 41.5336C172.945 41.7275 173.068 41.957 173.139 42.2301C173.21 42.4993 173.246 42.8 173.246 43.1404C173.246 43.5124 173.234 43.8845 173.206 44.2605C173.183 44.6365 173.167 45.0045 173.163 45.3686C173.159 45.7288 173.171 46.081 173.195 46.4254C173.218 46.7657 173.286 47.0903 173.385 47.3911H172.042L171.776 46.5203H171.713C171.542 46.7816 171.309 47.0071 171.008 47.1971C170.711 47.3871 170.322 47.4821 169.851 47.4821C169.554 47.4821 169.288 47.4385 169.051 47.3475C168.817 47.2604 168.611 47.1338 168.444 46.9676C168.274 46.8053 168.143 46.6114 168.048 46.3858C167.957 46.1641 167.91 45.9109 167.91 45.6338C167.91 45.2459 167.997 44.9175 168.171 44.6523C168.345 44.3871 168.595 44.1694 168.92 44.0072C169.245 43.8409 169.633 43.7301 170.085 43.6668C170.536 43.6035 171.039 43.5837 171.598 43.6074C171.657 43.1365 171.622 42.7961 171.499 42.5903C171.372 42.3805 171.087 42.2776 170.647 42.2776C170.318 42.2776 169.97 42.3132 169.601 42.3805C169.237 42.4478 168.932 42.5349 168.698 42.6457L168.306 41.4188ZM170.394 46.1285C170.722 46.1285 170.988 46.0533 171.182 45.9069C171.376 45.7565 171.519 45.5982 171.61 45.432V44.6087C171.348 44.581 171.099 44.5771 170.857 44.5969C170.615 44.6127 170.402 44.6483 170.215 44.7077C170.033 44.7671 169.883 44.8541 169.776 44.961C169.665 45.0718 169.609 45.2103 169.609 45.3805C169.609 45.618 169.68 45.8 169.819 45.9306C169.958 46.0612 170.148 46.1285 170.394 46.1285ZM178.341 44.8858H176.273V47.3792H174.625V41.0507H176.273V43.4293H178.341V41.0507H179.985V47.3792H178.341V44.8858ZM183.079 46.0019C183.333 46.0494 183.574 46.0771 183.8 46.0771C184.18 46.0771 184.446 46.0058 184.6 45.8673C184.751 45.7288 184.826 45.5111 184.826 45.2143C184.826 44.9452 184.751 44.7394 184.6 44.6008C184.446 44.4623 184.192 44.3911 183.84 44.3911C183.558 44.3911 183.305 44.4227 183.079 44.4821V46.0019ZM183.079 43.3027C183.281 43.271 183.487 43.2473 183.693 43.2354C183.899 43.2235 184.089 43.2156 184.256 43.2156C184.687 43.2156 185.048 43.2631 185.333 43.362C185.622 43.457 185.852 43.5956 186.031 43.7737C186.209 43.9518 186.336 44.1576 186.411 44.399C186.486 44.6404 186.526 44.8977 186.526 45.1787C186.526 45.5586 186.474 45.8911 186.375 46.176C186.272 46.4649 186.106 46.7024 185.88 46.8924C185.65 47.0823 185.357 47.2248 184.993 47.3238C184.628 47.4188 184.18 47.4702 183.65 47.4702C183.166 47.4702 182.75 47.4583 182.402 47.4425C182.049 47.4267 181.728 47.4069 181.431 47.3792V41.0507H183.079V43.3027ZM187.247 41.0507H188.895V47.3792H187.247V41.0507ZM194.204 44.7591V43.6074H194.976C195.273 43.6074 195.515 43.5481 195.705 43.4293C195.895 43.3146 195.99 43.1562 195.99 42.9623C195.99 42.7367 195.907 42.5705 195.737 42.4755C195.566 42.3766 195.309 42.3291 194.964 42.3291C194.635 42.3291 194.342 42.3726 194.089 42.4557C193.835 42.5388 193.633 42.6299 193.483 42.7209L193.126 41.4702C193.38 41.3238 193.716 41.2011 194.136 41.0943C194.552 40.9914 194.996 40.9359 195.471 40.9359C196.196 40.9359 196.739 41.0705 197.1 41.3436C197.46 41.6127 197.638 42.0045 197.638 42.519C197.638 42.6615 197.619 42.808 197.579 42.9544C197.543 43.1048 197.48 43.2433 197.397 43.3818C197.313 43.5164 197.21 43.6351 197.088 43.742C196.965 43.8449 196.818 43.928 196.648 43.9874V44.0388C197.096 44.1417 197.413 44.3198 197.599 44.5771C197.785 44.8343 197.88 45.1787 197.88 45.6101C197.88 45.8792 197.825 46.1285 197.714 46.362C197.603 46.5916 197.436 46.7934 197.214 46.9636C196.989 47.1298 196.707 47.2644 196.371 47.3673C196.034 47.4702 195.63 47.5217 195.166 47.5217C194.703 47.5217 194.299 47.4702 193.958 47.3752C193.613 47.2763 193.328 47.1655 193.102 47.0388L193.455 45.7605C193.649 45.8713 193.887 45.9583 194.16 46.0256C194.433 46.0929 194.742 46.1285 195.079 46.1285C195.848 46.1285 196.232 45.8831 196.232 45.3924C196.232 45.1747 196.133 45.0124 195.935 44.9135C195.737 44.8106 195.364 44.7591 194.826 44.7591H194.204ZM199.017 41.0507H200.221L200.412 41.8106H200.463C200.685 41.49 200.942 41.2526 201.244 41.1022C201.545 40.9518 201.909 40.8726 202.341 40.8726C203.133 40.8726 203.728 41.1259 204.124 41.6286C204.524 42.1312 204.722 42.9386 204.722 44.0507C204.722 44.5929 204.659 45.0797 204.532 45.5151C204.405 45.9465 204.215 46.3185 203.969 46.6193C203.72 46.924 203.415 47.1575 203.054 47.3159C202.697 47.4781 202.285 47.5573 201.818 47.5573C201.557 47.5573 201.343 47.5375 201.172 47.5019C201.006 47.4623 200.835 47.4029 200.665 47.3159V49.9121H199.017V41.0507ZM201.846 42.2658C201.525 42.2658 201.271 42.3449 201.089 42.5072C200.911 42.6655 200.768 42.9069 200.665 43.2275V45.8594C200.784 45.9544 200.915 46.0296 201.053 46.081C201.192 46.1364 201.374 46.1641 201.604 46.1641C202.075 46.1641 202.432 45.9979 202.67 45.6655C202.903 45.333 203.022 44.7789 203.022 44.0151C203.022 43.457 202.931 43.0256 202.745 42.7209C202.559 42.4201 202.258 42.2658 201.846 42.2658ZM210.93 46.837C210.676 47.0388 210.332 47.209 209.896 47.3475C209.464 47.486 209.001 47.5573 208.509 47.5573C207.487 47.5573 206.738 47.2604 206.267 46.6668C205.796 46.0692 205.558 45.2539 205.558 44.2169C205.558 43.1008 205.823 42.2658 206.354 41.7077C206.889 41.1536 207.634 40.8726 208.596 40.8726C208.921 40.8726 209.23 40.9162 209.535 40.9993C209.84 41.0863 210.11 41.2249 210.348 41.4188C210.585 41.6127 210.775 41.8739 210.918 42.2024C211.061 42.5309 211.132 42.9425 211.132 43.4293C211.132 43.6074 211.124 43.7974 211.1 43.9992C211.08 44.2011 211.049 44.4148 211.005 44.6325H207.218C207.242 45.1668 207.38 45.5665 207.626 45.8357C207.875 46.1048 208.276 46.2393 208.834 46.2393C209.179 46.2393 209.488 46.1879 209.761 46.081C210.035 45.9781 210.245 45.8713 210.387 45.7605L210.93 46.837ZM208.581 42.1906C208.153 42.1906 207.832 42.3172 207.626 42.5745C207.424 42.8357 207.297 43.176 207.253 43.6074H209.599C209.634 43.1523 209.563 42.8 209.393 42.5586C209.218 42.3132 208.949 42.1906 208.581 42.1906ZM216.013 44.8858H213.945V47.3792H212.297V41.0507H213.945V43.4293H216.013V41.0507H217.657V47.3792H216.013V44.8858ZM222.918 44.494L222.981 43.5956H222.942L222.399 44.5177L220.141 47.3792H219.103V41.0507H220.751V44.0626L220.676 44.9254H220.723L221.246 44.027L223.524 41.0507H224.566V47.3792H222.918V44.494ZM229.356 44.9887L228.595 45.1391L227.379 47.3792H225.414L226.642 45.3924L227.264 44.9254C226.848 44.8581 226.507 44.6602 226.238 44.3357C225.965 44.0111 225.83 43.6035 225.83 43.1127C225.83 42.3449 226.087 41.7789 226.599 41.4188C227.11 41.0547 227.894 40.8726 228.948 40.8726C229.356 40.8726 229.732 40.8964 230.081 40.9359C230.433 40.9795 230.739 41.027 231 41.0745V47.3792H229.356V44.9887ZM229.356 44.1259V42.3805C229.261 42.337 229.158 42.3093 229.051 42.2895C228.94 42.2737 228.833 42.2658 228.734 42.2658C228.354 42.2658 228.056 42.3449 227.846 42.5072C227.636 42.6655 227.53 42.9069 227.53 43.2275C227.53 43.5481 227.644 43.7855 227.878 43.9359C228.112 44.0903 228.449 44.1615 228.896 44.1536L229.356 44.1259Z" fill="white"/>
<path d="M98.8132 8.42291C99.6095 8.28043 100.485 8.16565 101.436 8.0865C102.391 8.00734 103.341 7.96381 104.288 7.96381C105.271 7.96381 106.257 8.04296 107.252 8.19336C108.242 8.34771 109.134 8.65246 109.93 9.11156C110.722 9.57066 111.372 10.2079 111.871 11.0232C112.374 11.8424 112.624 12.9071 112.624 14.2171C112.624 15.4044 112.406 16.4057 111.97 17.225C111.538 18.0403 110.96 18.7091 110.243 19.2316C109.522 19.754 108.706 20.13 107.79 20.3635C106.871 20.597 105.921 20.7157 104.938 20.7157C104.843 20.7157 104.692 20.7157 104.486 20.7157C104.276 20.7157 104.059 20.7078 103.833 20.6999C103.607 20.692 103.385 20.6761 103.167 20.6603C102.949 20.6405 102.795 20.6247 102.7 20.6049V27.1035H98.8132V8.42291ZM104.597 11.1458C104.221 11.1458 103.86 11.1577 103.52 11.1854C103.183 11.2131 102.906 11.2448 102.7 11.2804V17.3991C102.775 17.4149 102.89 17.4347 103.04 17.4545C103.191 17.4704 103.353 17.4822 103.52 17.4941C103.69 17.502 103.857 17.506 104.019 17.506C104.177 17.506 104.296 17.506 104.372 17.506C104.883 17.506 105.39 17.4624 105.889 17.3714C106.392 17.2804 106.84 17.1142 107.236 16.8727C107.632 16.6313 107.949 16.2949 108.187 15.8635C108.42 15.4321 108.539 14.8661 108.539 14.1656C108.539 13.572 108.428 13.0812 108.199 12.6973C107.973 12.3094 107.676 12.0007 107.307 11.7672C106.939 11.5298 106.519 11.3714 106.043 11.2804C105.572 11.1894 105.089 11.1458 104.597 11.1458ZM124.457 22.9241H118.36L116.859 27.1035H112.976L120.119 8.09837H122.984L130.127 27.1035H126.046L124.457 22.9241ZM119.355 19.9598H123.61L122.132 15.7527L121.538 12.7883H121.395L120.801 15.7804L119.355 19.9598ZM150.327 30.4716H147.578L147.15 27.1035H134.393L133.97 30.4716H131.216V23.8146H133.316C133.447 23.6168 133.664 23.1735 133.97 22.4928C134.271 21.8081 134.572 20.8424 134.877 19.5957C135.178 18.345 135.431 16.7817 135.641 14.9057C135.847 13.0258 135.942 10.8055 135.923 8.23293H147.804V23.8146H150.327V30.4716ZM143.921 23.8146V11.5218H139.524C139.413 14.7197 139.144 17.3397 138.716 19.378C138.292 21.4202 137.86 22.8964 137.428 23.8146H143.921ZM159.808 16.564L160.378 19.0178H160.545L161 16.4809L163.98 8.23293H167.977L162.7 21.2817C162.284 22.3028 161.884 23.1933 161.496 23.9492C161.107 24.7012 160.691 25.3265 160.248 25.8212C159.804 26.3159 159.309 26.684 158.762 26.9254C158.211 27.1669 157.57 27.2896 156.833 27.2896C156.207 27.2896 155.704 27.25 155.315 27.1669C154.927 27.0877 154.507 26.9136 154.055 26.6444L155.046 23.6524C155.367 23.8146 155.66 23.9136 155.925 23.9492C156.191 23.9848 156.472 24.0007 156.777 24.0007C157.665 24.0007 158.287 23.3358 158.647 22.0059L151.219 8.23293H155.783L159.808 16.564ZM178.479 8.23293H182.164V16.6155L183.154 16.2395L187.267 8.23293H191.632L187.013 16.5086L185.678 17.4268L187.294 18.5587L192.512 27.1035H187.833L183.269 18.907H182.164V27.1035H178.479V18.5825L177.457 18.9624L172.893 27.1035H168.357L173.543 18.8279L175.076 17.7751L173.603 16.7777L168.753 8.23293H173.262L177.37 16.2949H178.479V8.23293ZM200.776 19.0416H199.754V27.1035H195.871V8.23293H199.754V16.5917L200.661 16.2118L206.132 8.23293H210.558L204.773 16.1603L203.24 17.1814L204.829 18.2342L211.437 27.1035H206.643L200.776 19.0416ZM224.574 22.9241H218.481L216.976 27.1035H213.093L220.236 8.09837H223.1L230.247 27.1035H226.163L224.574 22.9241ZM219.471 19.9598H223.722L222.249 15.7527L221.654 12.7883H221.512L220.917 15.7804L219.471 19.9598Z" fill="white"/>
<path fill-rule="evenodd" clip-rule="evenodd" d="M98.7181 33.2539H230.766V35.6127H98.7181V33.2539Z" fill="white"/>
<path fill-rule="evenodd" clip-rule="evenodd" d="M24.4834 20.3754C24.3725 20.3635 23.6911 20.6761 23.497 20.7553C23.3108 20.8345 23.184 20.8938 22.9978 20.9809C22.5343 21.2025 22.7125 21.0521 22.5501 21.2856C22.3322 21.5706 21.8964 22.7619 21.7498 23.1893C19.4877 29.7157 21.1279 36.8396 25.7631 41.676C28.663 44.7077 32.3593 46.4808 36.8598 46.8884C38.6624 47.0269 41.5466 46.5797 43.159 46.1127C44.0702 45.8475 44.8744 45.4874 45.639 45.052C46.0154 44.8422 46.3601 44.6166 46.7206 44.3871C46.879 44.2882 47.8061 43.8132 47.8576 43.7539C48.2894 43.5362 49.2204 42.6773 49.6602 42.2934C49.8583 42.1233 50.0246 41.957 50.2029 41.7671C50.5555 41.4029 50.8764 41.0309 51.229 40.6193C52.881 38.676 54.1805 35.9729 54.7946 33.436C55.6701 29.8304 55.4047 25.7935 53.9864 22.3503C53.6972 21.6498 53.3168 20.8067 52.9246 20.1656C52.7939 19.9519 52.6433 19.7065 52.5364 19.5007L52.5324 19.4888L50.1435 19.1049C50.3337 20.312 50.3059 21.5904 49.4977 22.56C49.3749 22.7065 49.2838 22.8133 49.1491 22.936C49.0936 22.9875 48.8044 23.221 48.8044 23.221C48.7965 22.9162 49.2997 22.0297 48.5984 21.0798C47.8417 20.0587 47.1524 20.4466 46.6691 20.5297C46.574 20.2685 46.3402 19.9717 46.2689 19.6669C46.4631 19.4492 46.7642 19.287 47.1484 18.7487C47.0335 18.6933 46.0431 18.5706 45.9361 18.6458C45.7539 18.7843 45.6509 18.8754 45.429 19.0099C44.1256 19.7936 42.7509 20.5812 41.1385 20.5851C40.0847 20.5851 39.0744 20.4664 38.3178 20.0073C37.7433 19.663 36.947 18.8516 36.7053 18.2896L35.6 18.3173V18.345C35.8021 18.907 36.4478 19.7065 36.7648 20.031C36.9589 20.2289 36.6657 20.8384 36.5746 21.0363C35.7387 22.8252 33.9321 23.035 32.1256 22.7421C31.8324 22.6946 31.6977 22.6906 31.5591 22.6075C31.975 21.9268 32.9298 20.9492 33.8371 20.6445C34.1065 20.5535 34.3679 20.4585 34.3481 20.0944C34.3362 19.8292 34.0906 19.6036 33.8014 19.6234C33.4013 19.6511 32.6446 20.1181 32.3871 20.3041C31.571 20.8938 30.9886 21.5785 30.4022 22.5402C30.2636 22.7658 30.1012 22.9004 29.9348 23.1379C29.5029 23.7553 29.2098 24.626 29.0711 25.3859C28.6195 27.8516 29.7446 29.4861 29.4792 33.0916C29.3801 34.4333 29.0473 35.2882 28.4491 36.2341C28.0173 36.9267 26.9555 37.9557 26.1355 38.122C26.2741 37.6668 26.3969 37.4412 26.4841 36.9109C26.7892 35.0349 26.7297 31.841 26.1672 30.0165C26.0285 29.5613 25.5729 28.2078 25.1054 28.093C24.6261 27.9743 24.3329 28.4927 24.5785 28.8766C25.2084 29.8582 25.4897 31.1167 25.5888 32.3318C25.6997 33.6259 25.7631 36.8199 25.1569 37.7658C24.8836 38.1972 24.6221 38.2209 24.2655 37.841C22.6888 36.151 22.0074 31.9558 21.9123 29.7473C21.7776 26.7196 22.3996 23.8344 23.9129 21.3015C24.0754 21.0244 24.3646 20.6286 24.4834 20.3754Z" fill="white"/>
<path fill-rule="evenodd" clip-rule="evenodd" d="M0 33.8001V33.9821C1.12513 34.5679 3.60517 32.8463 4.63521 32.2249C5.7128 31.5758 7.56689 30.2935 8.62467 29.5613C11.18 27.7962 14.0443 25.9043 16.7185 24.3014C17.6614 23.7394 18.5884 23.2408 19.5471 22.6986C20.0582 22.4096 22.0906 21.345 22.5382 21.1986L23.081 20.2131C24.1229 18.3608 25.5214 16.6946 27.1536 15.3292C27.4389 15.0917 27.6924 14.8978 27.9896 14.6762C30.2715 12.9625 33.1517 11.7633 36.6974 11.4268C40.2233 11.0904 43.4878 12.0205 46.4314 13.6076C46.9266 13.8767 47.7982 14.4624 48.23 14.7989C49.6007 15.8635 50.1673 16.4295 51.2686 17.7276C51.6569 18.1827 52.1957 18.9031 52.5324 19.4888L52.5364 19.5007C52.8731 19.5126 53.3961 19.6392 53.7328 19.7025C60.0359 20.9176 61.8108 22.0376 67.5473 24.3569C68.1772 24.6141 68.9577 24.9584 69.6035 25.1603H69.647C69.7382 24.907 70.8276 23.9571 71.101 23.7632C71.723 23.3199 72.2618 23.0508 73.2245 22.9954C74.1476 22.9479 74.8963 23.1814 75.2331 23.8423C75.649 24.6656 75.34 25.4809 75.2014 26.2922C76.0452 26.0389 76.4731 25.2276 76.4889 24.1827C76.5127 22.0495 75.2212 20.3991 74.0327 18.9862C73.7078 18.5983 72.9907 17.8978 72.8164 17.6524L72.7649 17.6603C72.345 17.8107 71.9132 17.9611 71.4615 18.0719C70.9584 18.1946 70.5226 18.2421 70.1581 17.9294C70.0591 17.2448 70.9346 16.5324 71.1644 16.1524L67.8682 13.6946H67.8088C67.5632 13.9519 65.9943 14.9413 65.4991 14.973C64.9286 15.0086 65.0792 14.1142 65.1901 13.7263C65.3565 13.1208 65.5744 12.7923 65.6814 12.4479C65.4635 12.2936 65.0435 12.1155 64.786 11.9849C64.473 11.8226 64.172 11.692 63.8352 11.5297C63.2132 11.2329 62.4882 10.9361 61.8266 10.6947L61.7632 10.7184C61.5691 10.8648 61.3829 11.0152 61.1769 11.1656C60.9907 11.3002 60.8124 11.4545 60.6104 11.5812C60.2776 11.787 59.7467 12.2184 59.2079 12.1036C58.9425 11.6999 59.513 10.386 59.7388 9.98226L59.7507 9.94664C59.0613 9.78041 58.3522 9.51524 57.6311 9.32923C51.7559 7.82528 46.2174 7.38993 40.0688 7.73425C30.6241 8.25668 22.6888 11.0786 15.4547 16.1762L13.1133 17.9294C12.836 18.1392 12.5824 18.345 12.3368 18.5587L10.4788 20.1577C10.348 20.2685 10.2609 20.3833 10.1301 20.4941C9.65075 20.8978 7.79667 22.746 7.37276 23.2328C7.24995 23.3753 7.17864 23.4387 7.03602 23.5811L5.43152 25.4334C3.75175 27.436 1.25587 30.812 0.194124 33.2895C0.13866 33.4162 0.0554641 33.7011 0 33.8001Z" fill="white"/>
<path fill-rule="evenodd" clip-rule="evenodd" d="M47.8576 43.7538C47.8061 43.8132 46.8791 44.2881 46.7206 44.3871C46.3601 44.6166 46.0154 44.8422 45.639 45.052C44.8744 45.4873 44.0702 45.8475 43.159 46.1127C41.5466 46.5797 38.6624 47.0269 36.8599 46.8884C33.0685 46.928 28.8691 45.8554 25.569 44.8066C22.3798 43.7974 21.1477 43.1998 18.323 41.9887C15.0823 40.6074 6.90529 37.2869 3.82704 39.5586C2.39686 40.6153 2.93961 41.5573 4.1004 42.5942C5.09479 43.4808 6.85775 44.3871 8.37905 45.0164C11.1087 46.1483 15.7795 47.6206 18.7271 48.0599C25.0341 48.9979 43.4363 49.5915 48.7688 46.0493C51.0507 44.5335 50.6546 42.9227 48.1389 43.7143L47.917 43.7618C47.9091 43.7618 47.8893 43.7697 47.8853 43.7578C47.8814 43.7499 47.8655 43.7578 47.8576 43.7538Z" fill="white"/>
<path fill-rule="evenodd" clip-rule="evenodd" d="M24.5746 20.3081L24.4835 20.3754C24.3646 20.6286 24.0754 21.0244 23.913 21.3015C22.3996 23.8344 21.7776 26.7196 21.9123 29.7473C22.0074 31.9558 22.6888 36.151 24.2656 37.841C24.6221 38.2209 24.8836 38.1972 25.1569 37.7658C25.7631 36.8199 25.6997 33.6259 25.5888 32.3318C25.4897 31.1167 25.2084 29.8582 24.5785 28.8766C24.3329 28.4927 24.6261 27.9743 25.1054 28.093C25.5729 28.2078 26.0285 29.5613 26.1672 30.0165C26.7298 31.841 26.7892 35.0349 26.4841 36.9109C26.397 37.4412 26.2742 37.6668 26.1355 38.122C26.9556 37.9557 28.0173 36.9267 28.4491 36.2341C29.0474 35.2882 29.3801 34.4333 29.4792 33.0916C29.7446 29.4861 28.6195 27.8516 29.0711 25.3859C29.2098 24.626 29.503 23.7553 29.9348 23.1379C30.1012 22.9004 30.2636 22.7658 30.4023 22.5402C30.9886 21.5785 31.571 20.8938 32.3871 20.3041C32.6446 20.1181 33.4013 19.6511 33.8014 19.6234C34.0906 19.6036 34.3363 19.8292 34.3481 20.0944C34.3679 20.4585 34.1065 20.5535 33.8371 20.6445C32.9298 20.9492 31.9751 21.9268 31.5591 22.6075C31.6977 22.6906 31.8324 22.6946 32.1256 22.7421C33.9322 23.035 35.7387 22.8252 36.5746 21.0363C36.6657 20.8384 36.9589 20.2289 36.7648 20.031C36.4479 19.7065 35.8021 18.907 35.6 18.345C34.9781 18.2659 33.2507 18.4835 32.5614 18.5548C29.4752 18.8754 27.4666 19.3384 24.5746 20.3081Z" fill="#27C8BB"/>
<path fill-rule="evenodd" clip-rule="evenodd" d="M75.1697 26.3199C74.001 26.5059 73.2602 26.3357 72.1865 26.031C71.7587 25.9123 69.8689 25.3305 69.6471 25.1603H69.6035L67.7296 27.5626C66.8263 28.75 65.9429 30.0639 65.0039 31.275C64.6791 31.6945 64.3621 32.0824 64.0492 32.494C63.4826 33.2341 62.6903 34.0969 62.0208 34.7737C61.585 35.217 60.8956 35.9491 60.4123 36.3647C59.4258 37.2077 58.5741 38.0191 57.4688 38.8343C56.7358 39.3766 52.7305 42.3449 52.473 42.4003C53.3644 42.4953 55.7058 41.9649 56.5694 41.7354C60.4004 40.7222 64.9326 38.4267 67.8088 35.9927C67.9515 35.87 67.999 35.8383 68.1258 35.7156C68.9498 34.9399 69.3658 34.6787 70.3245 33.6457C71.5051 32.3753 72.6263 31.0811 73.5652 29.593C74.1119 28.7144 74.8607 27.4716 75.1697 26.3199Z" fill="white"/>
<path fill-rule="evenodd" clip-rule="evenodd" d="M71.208 16.1603L71.5883 16.5284C71.8379 16.7263 72.7055 17.5179 72.765 17.6603L72.8165 17.6524C73.0581 17.5099 73.7197 17.3002 74.0248 17.1814C74.4447 17.0192 74.8488 16.8569 75.241 16.6867C76.0413 16.3384 76.8336 15.9902 77.622 15.6577C80.0664 14.6168 84.5947 12.4361 86.6825 11.0271C87.2886 10.6195 88.0651 9.92686 88.4494 9.37673C88.8337 8.81869 89.4398 7.31474 88.6792 6.82793C87.3916 6.00076 84.2579 6.95062 83.0219 7.40972C79.8406 8.58914 78.145 10.1485 75.7244 12.0957C75.2173 12.5034 74.314 13.2316 73.8703 13.6551C73.7792 13.7382 73.7197 13.7698 73.6326 13.845C73.1176 14.3081 71.3546 15.8833 71.208 16.1603Z" fill="white"/>
<path fill-rule="evenodd" clip-rule="evenodd" d="M22.5382 21.1986L22.5501 21.2856C22.7125 21.0521 22.5342 21.2025 22.9978 20.9809C23.184 20.8938 23.3107 20.8345 23.4969 20.7553C23.6911 20.6761 24.3725 20.3635 24.4834 20.3754L24.5745 20.3081C24.7409 19.9835 25.2044 19.4215 25.4342 19.1564C26.9714 17.3872 29.186 15.4994 31.6819 15.2105C32.6881 15.0957 34.4392 15.3173 35.1087 15.8279C35.0731 16.3701 35.0493 16.6471 35.1682 17.1854C35.2474 17.5258 35.4098 18.1115 35.6 18.3173L36.7053 18.2896L36.6974 18.2619C36.3448 17.8107 36.0714 16.8609 36.0873 16.1683C36.9747 16.2158 37.6442 16.2395 38.4445 15.9506C38.7852 15.8279 39.0467 15.6617 39.3082 15.4915C40.6631 14.6168 42.7113 13.9361 44.4743 14.0667C45.4845 14.1419 45.7024 14.3714 46.3997 14.791C47.1048 15.2144 47.291 15.3609 47.6872 16.1485C47.8338 16.4374 47.917 16.8688 48.1428 17.0152C48.3409 17.1498 48.5786 17.0785 49.0778 17.4031C49.47 17.6564 50.0365 18.4202 50.1118 19.093L50.1435 19.1049L52.5324 19.4888C52.1957 18.9031 51.6569 18.1828 51.2686 17.7276C50.1672 16.4295 49.6007 15.8635 48.23 14.7989C47.7981 14.4625 46.9266 13.8767 46.4313 13.6076C43.4878 12.0205 40.2233 11.0904 36.6974 11.4269C33.1517 11.7633 30.2715 12.9625 27.9895 14.6762C27.6924 14.8978 27.4389 15.0917 27.1536 15.3292C25.5214 16.6946 24.1229 18.3609 23.081 20.2131L22.5382 21.1986Z" fill="white"/>
<path fill-rule="evenodd" clip-rule="evenodd" d="M47.3782 35.0111C47.0335 36.9425 47.3346 36.5824 45.8925 37.8884C44.1335 39.4795 41.7486 40.6549 39.1893 40.9557C35.7941 41.3475 32.4702 39.9979 30.0219 37.932L29.0473 37.0929C28.873 37.4452 28.049 38.2051 27.6805 38.4504C27.1496 38.8027 26.492 39.1866 25.7036 39.2539C25.9215 39.7169 27.2368 40.7895 27.6845 41.118C29.1701 42.2064 30.2319 42.6655 32.0503 43.1523C36.9747 44.4781 42.1249 43.8647 46.0114 40.5639C47.8734 38.9808 49.4383 36.8832 50.1514 34.5085C50.2821 34.0771 50.6308 32.6642 50.1395 32.4386C49.981 32.5217 49.6641 33.2183 49.5611 33.4083C49.363 33.7645 49.1966 34.0652 48.9906 34.4175C48.7252 34.8726 48.325 35.6325 47.7704 35.4228C47.5208 35.3278 47.5129 35.1972 47.3782 35.0111Z" fill="#27C8BB"/>
<path fill-rule="evenodd" clip-rule="evenodd" d="M65.7012 12.4598C66.0696 12.626 67.5988 13.4849 67.8088 13.6946H67.8682L72.9075 9.6221L75.1657 7.48887C76.2195 6.44402 76.8217 6.01658 77.9033 4.63928C78.3549 4.06541 78.8224 3.47966 79.1195 2.6604C79.4365 1.80157 79.3216 0.697349 78.6956 0.305531C77.0515 -0.723488 73.8148 2.16964 72.5351 3.28573C72.2539 3.52715 71.2199 4.55221 70.9544 4.90445L69.5203 6.66566C68.6012 7.87277 66.2756 11.0311 65.7012 12.4598Z" fill="white"/>
<path fill-rule="evenodd" clip-rule="evenodd" d="M43.9592 27.812C44.4663 28.9162 44.7199 29.5217 44.7278 30.9188C44.7278 31.5402 44.6723 32.0903 44.5337 32.6484C44.3356 33.436 44.0741 33.804 44.0068 34.0613C44.6921 33.6615 45.6905 32.4742 46.1818 31.8252C47.2316 30.4439 47.9487 29.2368 48.8203 27.7645C48.9391 27.5626 49.0817 27.2302 49.2481 27.0877C49.4779 26.8898 49.8622 26.9215 50.0563 27.1273C50.4881 27.5785 50.2187 30.4835 50.1276 31.2631C50.912 31.2829 51.6648 31.4452 52.2947 31.7104C53.2336 32.1022 53.6496 32.5732 53.9388 32.7196C53.9705 32.4426 54.0458 32.118 54.0893 31.841C54.6242 28.4848 54.125 25.0772 52.7661 22.0297C52.6314 21.7249 51.5063 19.568 51.2013 19.3503C51.2805 20.6959 51.225 21.622 50.6427 22.6392C50.0009 23.7671 49.0461 24.4875 47.6634 24.6101C47.4337 24.6299 47.4891 24.6141 47.398 24.808C46.9464 25.7737 46.2412 26.6128 45.3696 27.2183C44.8783 27.5587 44.5574 27.618 43.9592 27.812Z" fill="#27C8BB"/>
<path fill-rule="evenodd" clip-rule="evenodd" d="M30.2121 34.8449C30.1249 34.9755 30.0219 35.3436 29.9546 35.5217C29.8595 35.7631 29.7367 35.9729 29.6416 36.2064C29.8436 36.5349 30.8895 37.3621 31.258 37.6351C35.7347 40.9201 40.6552 40.833 44.9893 37.37C45.2429 37.1642 45.9401 36.5309 46.0986 36.3014C46.2135 36.1352 46.2491 35.6088 46.2887 35.3832C46.4076 34.7301 46.4789 34.1721 46.8355 33.7565C47.1841 33.3528 47.8932 33.1906 48.2617 33.6853C48.646 33.242 49.0738 30.5547 49.058 29.7394L48.3607 30.804C48.0081 31.3779 47.2435 32.4228 46.8275 32.9373C46.2135 33.7011 45.7935 34.1681 45.0448 34.7816C42.3072 37.0296 38.6862 37.9122 35.081 37.2671C33.5122 36.9861 31.876 36.3093 30.7073 35.2842C30.5171 35.118 30.3904 34.9795 30.2121 34.8449Z" fill="#27C8BB"/>
<path fill-rule="evenodd" clip-rule="evenodd" d="M36.6974 18.2619C37.0025 18.3054 37.5967 18.254 37.9375 18.254L41.4792 18.3054L45.8292 18.6062C45.9322 18.63 45.8886 18.6181 45.9362 18.6458C46.0431 18.5706 47.0336 18.6933 47.1485 18.7487C47.6872 18.6854 49.4264 19.0337 50.1118 19.093C50.0365 18.4202 49.47 17.6564 49.0778 17.4031C48.5786 17.0785 48.3409 17.1498 48.1428 17.0152C47.917 16.8688 47.8338 16.4374 47.6872 16.1485C47.2911 15.3609 47.1049 15.2144 46.3997 14.7909C45.7024 14.3714 45.4845 14.1419 44.4743 14.0667C42.7113 13.9361 40.6631 14.6168 39.3082 15.4915C39.0467 15.6617 38.7853 15.8279 38.4446 15.9506C37.6443 16.2395 36.9748 16.2157 36.0873 16.1682C36.0715 16.8609 36.3448 17.8107 36.6974 18.2619Z" fill="#F4F4F4"/>
<path fill-rule="evenodd" clip-rule="evenodd" d="M29.1583 43.2116C29.3762 43.3383 29.6257 43.5243 29.8674 43.6707C31.7809 44.8264 34.051 45.5982 36.325 45.8356C40.469 46.2631 44.6327 45.048 47.7031 42.6378C47.9487 42.4438 48.1428 42.2855 48.3686 42.1074C48.4835 42.0164 48.5707 41.9214 48.6856 41.8304L50.2307 40.2591C50.916 39.4478 51.6371 38.4504 52.2274 37.3541C52.5879 36.6813 53.5625 34.6193 53.6417 33.8001C53.1108 33.3489 52.3066 32.6167 51.3122 32.4386C51.645 34.9241 49.9573 37.5876 48.9035 38.9768C45.0012 44.1021 38.8486 45.7367 32.5891 44.3198C31.8602 44.1536 30.632 43.8251 29.9506 43.548C29.701 43.4451 29.388 43.2789 29.1583 43.2116Z" fill="#27C8BB"/>
<path fill-rule="evenodd" clip-rule="evenodd" d="M38.6902 21.2896C38.7575 21.8674 39.3161 22.4373 39.6648 23.3991C39.9262 24.1234 40.3977 24.8358 40.8018 25.3305C41.6932 26.4228 43.0441 27.5785 44.9101 26.3318C45.4528 25.9716 45.9679 25.3305 46.3442 24.6933C46.5463 24.3489 46.6493 23.9848 46.9187 23.7395C47.2118 23.4703 47.4416 23.2764 47.6952 22.936C47.9289 22.6234 48.1032 22.2355 47.8576 21.7764C47.6239 21.345 47.2871 21.2936 46.8751 21.6023C46.1937 22.1128 45.7341 20.8186 45.4568 20.3397L45.3617 20.2052C44.914 20.407 44.4862 20.6841 44.0108 20.9136C42.1052 21.8358 40.7701 21.6972 38.6902 21.2896Z" fill="#27C8BB"/>
<path fill-rule="evenodd" clip-rule="evenodd" d="M59.7507 9.94664L59.7388 9.98226C59.8497 9.98622 61.6404 10.5403 61.7632 10.7184L61.8266 10.6947C61.8781 10.5284 62.203 10.3305 62.3456 10.2039L63.9659 8.7514C64.1838 8.50997 64.4334 8.33979 64.7503 8.00338C65.0316 7.70655 65.3644 7.45325 65.7962 6.99811C66.4816 6.26592 67.3611 5.68809 68.0227 4.61553C68.6566 3.59047 68.8071 2.37148 67.7256 1.79761C65.4991 0.622152 62.1792 5.75141 61.2086 7.27515C60.9392 7.69467 60.7134 8.11815 60.4558 8.56934C60.2181 8.9849 59.9963 9.55086 59.7507 9.94664Z" fill="white"/>
<path fill-rule="evenodd" clip-rule="evenodd" d="M24.5745 20.3081C27.4666 19.3384 29.4752 18.8753 32.5614 18.5548C33.2507 18.4835 34.978 18.2658 35.6 18.345V18.3173C35.4098 18.1115 35.2474 17.5257 35.1682 17.1854C35.0493 16.6471 35.0731 16.3701 35.1087 15.8279C34.4392 15.3173 32.6881 15.0957 31.6819 15.2105C29.186 15.4994 26.9714 17.3872 25.4342 19.1563C25.2044 19.4215 24.7409 19.9835 24.5745 20.3081Z" fill="#F4F4F4"/>
<path fill-rule="evenodd" clip-rule="evenodd" d="M30.8935 23.5059C29.9783 24.7685 30.1526 24.9584 30.9569 26.4268C31.2183 26.9057 31.5234 27.3291 31.8166 27.6972C32.0305 27.9663 32.6129 28.5838 32.9536 28.7064C33.3101 27.7328 34.2689 26.6959 34.9542 26.1933C35.806 25.564 36.9351 25.093 38.3019 25.0218C38.4247 24.6299 38.2979 23.3555 38.2385 22.9044C38.2029 22.6154 38.0127 22.3661 37.8899 22.1009C37.7591 21.816 37.6878 21.4954 37.6324 21.1432C37.3115 21.6537 37.3115 21.9782 36.6657 22.6194C36.2854 22.9954 35.8258 23.3358 35.1959 23.5772C33.9559 24.0521 32.1375 23.8226 30.8935 23.5059Z" fill="#27C8BB"/>
<path fill-rule="evenodd" clip-rule="evenodd" d="M34.2689 32.4109C34.3957 32.7671 34.6849 32.9729 34.9068 33.1787C35.3742 33.6141 35.4139 33.4241 35.5287 33.9624C36.016 36.2262 37.6522 35.2051 38.6862 35.7552C39.2765 36.0719 38.8645 36.4399 41.3564 35.5613C40.992 35.3476 40.6592 35.4267 40.1758 34.7777C39.8787 34.3779 39.3597 33.1352 39.3439 32.6682C39.3399 32.4901 39.6569 31.3027 39.1854 31.1246C38.6427 30.9149 38.6268 31.3384 38.5832 31.4808C38.4485 31.936 38.1118 32.4188 37.5571 32.399C36.8757 32.3753 36.848 31.8687 36.6261 31.3779C36.3726 30.812 35.5961 31.1444 35.291 31.4333C35.0969 31.6114 34.9701 31.7579 34.8077 31.9281C34.6255 32.118 34.4393 32.2209 34.2689 32.4109Z" fill="#27C8BB"/>
<path fill-rule="evenodd" clip-rule="evenodd" d="M30.0774 14.5416C30.3191 14.4981 30.6003 14.3912 30.8539 14.3358C32.193 14.039 33.9242 14.1498 35.1682 14.7157C35.8258 15.0165 35.8377 15.1867 36.741 15.2065C37.985 15.2303 38.2544 14.9334 39.0507 14.4664C39.8985 13.9677 40.9682 13.5522 41.9467 13.3107C42.2082 13.2474 42.5489 13.2078 42.7906 13.1247C39.2527 11.9493 34.78 12.2065 31.357 13.8648C30.945 14.0627 30.4023 14.3081 30.0774 14.5416Z" fill="#F4F4F4"/>
<path fill-rule="evenodd" clip-rule="evenodd" d="M45.9361 18.6458C45.8886 18.6181 45.9322 18.63 45.8292 18.6062L41.4792 18.3054L37.9374 18.254C37.5967 18.254 37.0024 18.3054 36.6974 18.2619L36.7053 18.2896C36.947 18.8516 37.7433 19.663 38.3177 20.0073C39.0744 20.4664 40.0847 20.5851 41.1385 20.5851C42.7509 20.5812 44.1256 19.7936 45.429 19.0099C45.6509 18.8754 45.7539 18.7843 45.9361 18.6458Z" fill="#27C8BB"/>
<path fill-rule="evenodd" clip-rule="evenodd" d="M69.6471 25.1603C69.869 25.3305 71.7587 25.9122 72.1866 26.031C73.2602 26.3357 74.001 26.5059 75.1697 26.3199L75.2014 26.2922C75.3401 25.4808 75.6491 24.6656 75.2331 23.8423C74.8964 23.1814 74.1476 22.9479 73.2245 22.9954C72.2618 23.0508 71.723 23.3199 71.101 23.7632C70.8277 23.9571 69.7382 24.907 69.6471 25.1603Z" fill="#F4F4F4"/>
<path fill-rule="evenodd" clip-rule="evenodd" d="M47.1484 18.7487C46.7641 19.287 46.463 19.4492 46.2689 19.6669C46.3402 19.9717 46.574 20.2685 46.6691 20.5297C47.1524 20.4466 47.8417 20.0587 48.5984 21.0798C49.2996 22.0297 48.7965 22.9162 48.8044 23.221C48.8044 23.221 49.0936 22.9875 49.1491 22.936C49.2838 22.8133 49.3749 22.7065 49.4977 22.56C50.3059 21.5904 50.3336 20.312 50.1435 19.1049L50.1118 19.093C49.4264 19.0337 47.6872 18.6854 47.1484 18.7487Z" fill="#27C8BB"/>
<path fill-rule="evenodd" clip-rule="evenodd" d="M33.2032 32.498C33.12 32.2209 32.7159 32.1695 32.5416 31.3225C32.4029 30.6576 32.5297 30.2856 32.605 29.6761C32.3158 29.5653 32.0266 29.2922 31.8047 29.118C31.2263 28.6589 30.6479 27.8278 30.2398 27.1827C30.1448 27.0323 30.0655 26.8582 29.9625 26.7315C29.9506 27.6022 30.3904 29.498 30.4894 30.7526C30.5449 31.4492 30.3389 31.7302 31.3253 32.2368C31.7176 32.4426 32.7357 32.7631 33.2032 32.498Z" fill="#27C8BB"/>
<path fill-rule="evenodd" clip-rule="evenodd" d="M35.7783 36.1391C35.6 36.052 35.3147 35.7433 35.188 35.585C35.0255 35.3832 34.875 35.1101 34.7561 34.8212C34.4669 34.1167 34.7205 34.3423 34.352 34.0336C34.2292 33.9307 34.146 33.8634 34.0311 33.7565C33.9083 33.6457 33.833 33.5389 33.7102 33.4399C32.8109 33.5705 32.1691 33.7011 31.1827 33.2777C30.941 33.1708 30.6993 32.9967 30.4973 32.9254C30.4497 33.341 30.6597 33.5982 31.0044 33.9267C31.4956 34.3937 31.8165 34.7183 32.5415 35.1141C32.9932 35.3674 33.4884 35.5929 34.0193 35.771C34.3639 35.8858 35.4177 36.1668 35.7783 36.1391Z" fill="#27C8BB"/>
<path fill-rule="evenodd" clip-rule="evenodd" d="M67.8088 13.6947C67.5988 13.4849 66.0696 12.6261 65.7012 12.4598L65.6813 12.448C65.5744 12.7923 65.3565 13.1208 65.1901 13.7263C65.0792 14.1142 64.9286 15.0086 65.4991 14.973C65.9943 14.9414 67.5632 13.9519 67.8088 13.6947Z" fill="#F4F4F4"/>
<path fill-rule="evenodd" clip-rule="evenodd" d="M61.7632 10.7184C61.6404 10.5403 59.8497 9.98623 59.7388 9.98227C59.5129 10.386 58.9425 11.6999 59.2079 12.1036C59.7467 12.2184 60.2776 11.787 60.6103 11.5812C60.8124 11.4546 60.9907 11.3002 61.1769 11.1656C61.3829 11.0152 61.5691 10.8649 61.7632 10.7184Z" fill="#F4F4F4"/>
<path fill-rule="evenodd" clip-rule="evenodd" d="M72.765 17.6603C72.7056 17.5178 71.8379 16.7263 71.5883 16.5284L71.208 16.1603L71.1644 16.1524C70.9347 16.5324 70.0591 17.2447 70.1582 17.9294C70.5226 18.2421 70.9584 18.1946 71.4616 18.0719C71.9132 17.9611 72.345 17.8107 72.765 17.6603Z" fill="#F4F4F4"/>
</g>
<defs>
<clipPath id="clip0_60_768">
<rect width="231" height="50" fill="white"/>
</clipPath>
</defs>
</svg>
