<svg width="231" height="50" viewBox="0 0 231 50" fill="none" xmlns="http://www.w3.org/2000/svg">
<g clip-path="url(#clip0_336_1070)">
<path d="M100.87 44.7591H100.426V47.3792H98.7778V41.0507H100.426V43.7459L100.818 43.5718L102.3 41.0507H104.063L102.53 43.457L101.88 43.9359L102.593 44.4306L104.3 47.3792H102.415L100.87 44.7591ZM108.801 42.5072H107.545C107.494 43.1048 107.434 43.7024 107.367 44.2921C107.299 44.8818 107.193 45.4122 107.046 45.8792C106.895 46.3501 106.697 46.7301 106.444 47.019C106.19 47.3119 105.861 47.4544 105.453 47.4544C104.966 47.4544 104.617 47.391 104.415 47.2683L104.617 45.9267C104.752 45.9742 104.879 46.0019 104.998 46.0019C105.168 46.0019 105.315 45.9306 105.441 45.7842C105.568 45.6417 105.675 45.3805 105.766 45.0085C105.853 44.6364 105.925 44.1259 105.98 43.4887C106.036 42.8475 106.075 42.0362 106.103 41.0507H110.449V47.3792H108.801V42.5072ZM115.694 44.494L115.758 43.5955H115.718L115.175 44.5177L112.917 47.3792H111.879V41.0507H113.527V44.0626L113.452 44.9254H113.5L114.019 44.0269L116.301 41.0507H117.338V47.3792H115.694V44.494ZM122.497 44.8858H120.433V47.3792H118.785V41.0507H120.433V43.4293H122.497V41.0507H124.145V47.3792H122.497V44.8858ZM129.402 44.494L129.465 43.5955H129.43L128.883 44.5177L126.629 47.3792H125.591V41.0507H127.235V44.0626L127.16 44.9254H127.211L127.73 44.0269L130.012 41.0507H131.05V47.3792H129.402V44.494ZM134.584 44.7591H134.144V47.3792H132.496V41.0507H134.144V43.7459L134.536 43.5718L136.018 41.0507H137.777L136.244 43.457L135.598 43.9359L136.307 44.4306L138.019 47.3792H136.133L134.584 44.7591ZM138.653 41.4188C138.989 41.2644 139.393 41.1457 139.857 41.0586C140.32 40.9676 140.808 40.9241 141.315 40.9241C141.755 40.9241 142.119 40.9755 142.416 41.0824C142.713 41.1892 142.947 41.3396 143.121 41.5335C143.292 41.7275 143.415 41.957 143.486 42.2301C143.557 42.4992 143.597 42.8 143.597 43.1404C143.597 43.5124 143.581 43.8845 143.557 44.2604C143.533 44.6364 143.518 45.0045 143.514 45.3686C143.51 45.7288 143.518 46.081 143.545 46.4253C143.569 46.7657 143.632 47.0902 143.735 47.391H142.392L142.127 46.5203H142.06C141.893 46.7815 141.659 47.0071 141.358 47.1971C141.057 47.3871 140.673 47.4821 140.198 47.4821C139.904 47.4821 139.639 47.4385 139.401 47.3475C139.164 47.2604 138.962 47.1338 138.791 46.9676C138.625 46.8053 138.494 46.6114 138.399 46.3858C138.308 46.1641 138.26 45.9108 138.26 45.6338C138.26 45.2459 138.347 44.9174 138.522 44.6523C138.692 44.3871 138.942 44.1694 139.267 44.0072C139.591 43.8409 139.98 43.7301 140.435 43.6668C140.887 43.6035 141.39 43.5837 141.949 43.6074C142.008 43.1364 141.972 42.7961 141.846 42.5903C141.719 42.3805 141.438 42.2776 140.998 42.2776C140.669 42.2776 140.32 42.3132 139.952 42.3805C139.584 42.4478 139.282 42.5349 139.045 42.6457L138.653 41.4188ZM140.744 46.1285C141.073 46.1285 141.335 46.0533 141.529 45.9069C141.723 45.7565 141.865 45.5982 141.961 45.4319V44.6087C141.699 44.581 141.446 44.5771 141.208 44.5969C140.966 44.6127 140.752 44.6483 140.566 44.7077C140.38 44.767 140.233 44.8541 140.122 44.961C140.011 45.0718 139.96 45.2103 139.96 45.3805C139.96 45.618 140.027 45.8 140.166 45.9306C140.309 46.0612 140.499 46.1285 140.744 46.1285ZM147.879 44.2169C147.879 43.1444 148.141 42.3172 148.664 41.7394C149.187 41.1615 149.924 40.8726 150.87 40.8726C151.374 40.8726 151.813 40.9557 152.186 41.114C152.558 41.2763 152.867 41.5019 153.113 41.7908C153.358 42.0837 153.541 42.4359 153.664 42.8475C153.786 43.2631 153.846 43.7182 153.846 44.2169C153.846 45.2855 153.588 46.1127 153.065 46.6905C152.546 47.2683 151.813 47.5573 150.87 47.5573C150.363 47.5573 149.924 47.4781 149.551 47.3158C149.179 47.1575 148.87 46.9319 148.62 46.6391C148.371 46.3501 148.184 45.9979 148.062 45.5823C147.939 45.1707 147.879 44.7116 147.879 44.2169ZM149.575 44.2169C149.575 44.494 149.603 44.7512 149.654 44.9887C149.702 45.2261 149.777 45.4319 149.88 45.61C149.983 45.7842 150.114 45.9227 150.28 46.0177C150.443 46.1166 150.641 46.1641 150.87 46.1641C151.298 46.1641 151.619 46.0098 151.833 45.6971C152.043 45.3845 152.15 44.8897 152.15 44.2169C152.15 43.6351 152.051 43.1641 151.857 42.804C151.663 42.4438 151.334 42.2657 150.87 42.2657C150.462 42.2657 150.146 42.4201 149.92 42.7209C149.69 43.0256 149.575 43.5243 149.575 44.2169ZM156.278 44.1417L154.377 41.0507H156.342L157.166 42.4043L157.522 43.2908L157.903 42.4043L158.762 41.0507H160.549L158.635 44.0903L160.676 47.3792H158.762L157.788 45.8594L157.407 44.9254L157.003 45.8594L156.025 47.3792H154.226L156.278 44.1417ZM161.5 41.0507H162.704L162.894 41.8106H162.946C163.164 41.49 163.425 41.2525 163.722 41.1022C164.023 40.9518 164.388 40.8726 164.82 40.8726C165.612 40.8726 166.21 41.1259 166.606 41.6285C167.003 42.1312 167.201 42.9386 167.201 44.0507C167.201 44.5929 167.137 45.0797 167.011 45.5151C166.884 45.9465 166.698 46.3185 166.448 46.6193C166.198 46.924 165.893 47.1575 165.537 47.3158C165.176 47.4781 164.764 47.5573 164.301 47.5573C164.039 47.5573 163.821 47.5375 163.655 47.5019C163.485 47.4623 163.314 47.4029 163.148 47.3158V49.9121H161.5V41.0507ZM164.324 42.2657C164.004 42.2657 163.754 42.3449 163.572 42.5072C163.39 42.6655 163.247 42.9069 163.148 43.2275V45.8594C163.267 45.9544 163.393 46.0296 163.532 46.081C163.671 46.1364 163.857 46.1641 164.083 46.1641C164.558 46.1641 164.911 45.9979 165.149 45.6655C165.386 45.333 165.505 44.7789 165.505 44.0151C165.505 43.457 165.41 43.0256 165.224 42.7209C165.038 42.4201 164.74 42.2657 164.324 42.2657ZM168.306 41.4188C168.643 41.2644 169.043 41.1457 169.506 41.0586C169.974 40.9676 170.457 40.9241 170.964 40.9241C171.404 40.9241 171.773 40.9755 172.066 41.0824C172.363 41.1892 172.597 41.3396 172.771 41.5335C172.945 41.7275 173.068 41.957 173.139 42.2301C173.211 42.4992 173.246 42.8 173.246 43.1404C173.246 43.5124 173.234 43.8845 173.207 44.2604C173.183 44.6364 173.167 45.0045 173.163 45.3686C173.159 45.7288 173.171 46.081 173.195 46.4253C173.219 46.7657 173.286 47.0902 173.385 47.391H172.042L171.776 46.5203H171.713C171.543 46.7815 171.309 47.0071 171.008 47.1971C170.711 47.3871 170.323 47.4821 169.851 47.4821C169.554 47.4821 169.289 47.4385 169.051 47.3475C168.817 47.2604 168.611 47.1338 168.445 46.9676C168.274 46.8053 168.144 46.6114 168.049 46.3858C167.957 46.1641 167.91 45.9108 167.91 45.6338C167.91 45.2459 167.997 44.9174 168.171 44.6523C168.346 44.3871 168.595 44.1694 168.92 44.0072C169.245 43.8409 169.633 43.7301 170.085 43.6668C170.536 43.6035 171.04 43.5837 171.598 43.6074C171.658 43.1364 171.622 42.7961 171.499 42.5903C171.372 42.3805 171.087 42.2776 170.647 42.2776C170.319 42.2776 169.97 42.3132 169.602 42.3805C169.237 42.4478 168.932 42.5349 168.698 42.6457L168.306 41.4188ZM170.394 46.1285C170.723 46.1285 170.988 46.0533 171.182 45.9069C171.376 45.7565 171.519 45.5982 171.61 45.4319V44.6087C171.349 44.581 171.099 44.5771 170.857 44.5969C170.616 44.6127 170.402 44.6483 170.216 44.7077C170.033 44.767 169.883 44.8541 169.776 44.961C169.665 45.0718 169.609 45.2103 169.609 45.3805C169.609 45.618 169.681 45.8 169.819 45.9306C169.958 46.0612 170.148 46.1285 170.394 46.1285ZM178.341 44.8858H176.273V47.3792H174.625V41.0507H176.273V43.4293H178.341V41.0507H179.985V47.3792H178.341V44.8858ZM183.079 46.0019C183.333 46.0494 183.574 46.0771 183.8 46.0771C184.181 46.0771 184.446 46.0058 184.601 45.8673C184.751 45.7288 184.826 45.5111 184.826 45.2143C184.826 44.9451 184.751 44.7393 184.601 44.6008C184.446 44.4623 184.193 44.3911 183.84 44.3911C183.559 44.3911 183.305 44.4227 183.079 44.4821V46.0019ZM183.079 43.3027C183.281 43.271 183.487 43.2473 183.693 43.2354C183.899 43.2235 184.09 43.2156 184.256 43.2156C184.688 43.2156 185.048 43.2631 185.333 43.362C185.623 43.457 185.852 43.5955 186.031 43.7736C186.209 43.9517 186.336 44.1575 186.411 44.399C186.486 44.6404 186.526 44.8976 186.526 45.1786C186.526 45.5586 186.474 45.891 186.375 46.176C186.272 46.4649 186.106 46.7024 185.88 46.8924C185.65 47.0823 185.357 47.2248 184.993 47.3238C184.628 47.4187 184.181 47.4702 183.65 47.4702C183.166 47.4702 182.75 47.4583 182.402 47.4425C182.049 47.4267 181.728 47.4069 181.431 47.3792V41.0507H183.079V43.3027ZM187.247 41.0507H188.895V47.3792H187.247V41.0507ZM194.204 44.7591V43.6074H194.976C195.273 43.6074 195.515 43.5481 195.705 43.4293C195.895 43.3145 195.991 43.1562 195.991 42.9623C195.991 42.7367 195.907 42.5705 195.737 42.4755C195.567 42.3766 195.309 42.3291 194.964 42.3291C194.636 42.3291 194.342 42.3726 194.089 42.4557C193.835 42.5388 193.633 42.6299 193.483 42.7209L193.126 41.4702C193.38 41.3238 193.716 41.2011 194.136 41.0942C194.552 40.9913 194.996 40.9359 195.472 40.9359C196.197 40.9359 196.739 41.0705 197.1 41.3436C197.46 41.6127 197.639 42.0045 197.639 42.519C197.639 42.6615 197.619 42.8079 197.579 42.9544C197.544 43.1048 197.48 43.2433 197.397 43.3818C197.314 43.5164 197.211 43.6351 197.088 43.742C196.965 43.8449 196.819 43.928 196.648 43.9874V44.0388C197.096 44.1417 197.413 44.3198 197.599 44.5771C197.785 44.8343 197.88 45.1786 197.88 45.61C197.88 45.8792 197.825 46.1285 197.714 46.362C197.603 46.5916 197.437 46.7934 197.215 46.9636C196.989 47.1298 196.708 47.2644 196.371 47.3673C196.034 47.4702 195.63 47.5216 195.166 47.5216C194.703 47.5216 194.299 47.4702 193.958 47.3752C193.613 47.2763 193.328 47.1654 193.102 47.0388L193.455 45.7604C193.649 45.8713 193.887 45.9583 194.16 46.0256C194.434 46.0929 194.743 46.1285 195.079 46.1285C195.848 46.1285 196.232 45.8831 196.232 45.3924C196.232 45.1747 196.133 45.0124 195.935 44.9135C195.737 44.8106 195.365 44.7591 194.826 44.7591H194.204ZM199.017 41.0507H200.222L200.412 41.8106H200.463C200.685 41.49 200.943 41.2525 201.244 41.1022C201.545 40.9518 201.909 40.8726 202.341 40.8726C203.133 40.8726 203.728 41.1259 204.124 41.6285C204.524 42.1312 204.722 42.9386 204.722 44.0507C204.722 44.5929 204.659 45.0797 204.532 45.5151C204.405 45.9465 204.215 46.3185 203.969 46.6193C203.72 46.924 203.415 47.1575 203.054 47.3158C202.698 47.4781 202.286 47.5573 201.818 47.5573C201.557 47.5573 201.343 47.5375 201.172 47.5019C201.006 47.4623 200.836 47.4029 200.665 47.3158V49.9121H199.017V41.0507ZM201.846 42.2657C201.525 42.2657 201.271 42.3449 201.089 42.5072C200.911 42.6655 200.768 42.9069 200.665 43.2275V45.8594C200.784 45.9544 200.915 46.0296 201.054 46.081C201.192 46.1364 201.374 46.1641 201.604 46.1641C202.076 46.1641 202.432 45.9979 202.67 45.6655C202.904 45.333 203.023 44.7789 203.023 44.0151C203.023 43.457 202.931 43.0256 202.745 42.7209C202.559 42.4201 202.258 42.2657 201.846 42.2657ZM210.93 46.837C210.677 47.0388 210.332 47.209 209.896 47.3475C209.464 47.486 209.001 47.5573 208.51 47.5573C207.487 47.5573 206.739 47.2604 206.267 46.6668C205.796 46.0691 205.558 45.2538 205.558 44.2169C205.558 43.1008 205.824 42.2657 206.354 41.7077C206.889 41.1536 207.634 40.8726 208.597 40.8726C208.922 40.8726 209.231 40.9161 209.536 40.9993C209.841 41.0863 210.11 41.2248 210.348 41.4188C210.585 41.6127 210.776 41.8739 210.918 42.2024C211.061 42.5309 211.132 42.9425 211.132 43.4293C211.132 43.6074 211.124 43.7974 211.101 43.9992C211.081 44.2011 211.049 44.4148 211.005 44.6325H207.218C207.242 45.1668 207.38 45.5665 207.626 45.8356C207.876 46.1048 208.276 46.2393 208.834 46.2393C209.179 46.2393 209.488 46.1879 209.761 46.081C210.035 45.9781 210.245 45.8713 210.387 45.7604L210.93 46.837ZM208.581 42.1905C208.153 42.1905 207.832 42.3172 207.626 42.5744C207.424 42.8357 207.297 43.176 207.254 43.6074H209.599C209.635 43.1523 209.563 42.8 209.393 42.5586C209.219 42.3132 208.949 42.1905 208.581 42.1905ZM216.013 44.8858H213.945V47.3792H212.297V41.0507H213.945V43.4293H216.013V41.0507H217.657V47.3792H216.013V44.8858ZM222.918 44.494L222.982 43.5955H222.942L222.399 44.5177L220.141 47.3792H219.103V41.0507H220.751V44.0626L220.676 44.9254H220.724L221.246 44.0269L223.524 41.0507H224.566V47.3792H222.918V44.494ZM229.356 44.9887L228.595 45.1391L227.379 47.3792H225.414L226.642 45.3924L227.264 44.9254C226.848 44.8581 226.508 44.6602 226.238 44.3356C225.965 44.0111 225.83 43.6035 225.83 43.1127C225.83 42.3449 226.088 41.7789 226.599 41.4188C227.11 41.0547 227.894 40.8726 228.948 40.8726C229.356 40.8726 229.732 40.8963 230.081 40.9359C230.434 40.9795 230.739 41.027 231 41.0744V47.3792H229.356V44.9887ZM229.356 44.1259V42.3805C229.261 42.337 229.158 42.3093 229.051 42.2895C228.94 42.2736 228.833 42.2657 228.734 42.2657C228.354 42.2657 228.057 42.3449 227.847 42.5072C227.637 42.6655 227.53 42.9069 227.53 43.2275C227.53 43.5481 227.645 43.7855 227.878 43.9359C228.112 44.0903 228.449 44.1615 228.897 44.1536L229.356 44.1259Z" fill="#28B3A8"/>
<path d="M98.8135 8.42291C99.6098 8.28043 100.485 8.16566 101.436 8.0865C102.391 8.00735 103.342 7.96381 104.289 7.96381C105.271 7.96381 106.258 8.04297 107.252 8.19336C108.242 8.34771 109.134 8.65246 109.93 9.11156C110.722 9.57066 111.372 10.2079 111.871 11.0232C112.374 11.8424 112.624 12.9071 112.624 14.2171C112.624 15.4044 112.406 16.4057 111.97 17.225C111.539 18.0403 110.96 18.7091 110.243 19.2316C109.522 19.754 108.706 20.13 107.791 20.3635C106.872 20.597 105.921 20.7157 104.938 20.7157C104.843 20.7157 104.693 20.7157 104.487 20.7157C104.277 20.7157 104.059 20.7078 103.833 20.6999C103.607 20.692 103.385 20.6761 103.167 20.6603C102.95 20.6405 102.795 20.6247 102.7 20.6049V27.1035H98.8135V8.42291ZM104.598 11.1459C104.221 11.1459 103.861 11.1577 103.52 11.1854C103.183 11.2131 102.906 11.2448 102.7 11.2804V17.3991C102.775 17.4149 102.89 17.4347 103.041 17.4545C103.191 17.4704 103.354 17.4822 103.52 17.4941C103.69 17.502 103.857 17.506 104.019 17.506C104.178 17.506 104.297 17.506 104.372 17.506C104.883 17.506 105.39 17.4624 105.889 17.3714C106.392 17.2804 106.84 17.1142 107.236 16.8727C107.632 16.6313 107.949 16.2949 108.187 15.8635C108.421 15.4321 108.54 14.8661 108.54 14.1656C108.54 13.572 108.429 13.0812 108.199 12.6973C107.973 12.3094 107.676 12.0007 107.307 11.7672C106.939 11.5298 106.519 11.3714 106.044 11.2804C105.572 11.1894 105.089 11.1459 104.598 11.1459ZM124.458 22.9242H118.361L116.859 27.1035H112.977L120.12 8.09837H122.984L130.127 27.1035H126.046L124.458 22.9242ZM119.355 19.9598H123.61L122.132 15.7527L121.538 12.7883H121.395L120.801 15.7804L119.355 19.9598ZM150.328 30.4716H147.578L147.15 27.1035H134.394L133.97 30.4716H131.216V23.8146H133.316C133.447 23.6168 133.665 23.1735 133.97 22.4928C134.271 21.8081 134.572 20.8424 134.877 19.5957C135.178 18.345 135.432 16.7817 135.642 14.9057C135.848 13.0258 135.943 10.8055 135.923 8.23294H147.804V23.8146H150.328V30.4716ZM143.922 23.8146V11.5218H139.524C139.413 14.7197 139.144 17.3398 138.716 19.378C138.292 21.4202 137.86 22.8964 137.428 23.8146H143.922ZM159.808 16.564L160.379 19.0178H160.545L161.001 16.4809L163.98 8.23294H167.977L162.7 21.2817C162.284 22.3028 161.884 23.1933 161.496 23.9492C161.108 24.7012 160.692 25.3265 160.248 25.8212C159.804 26.316 159.309 26.684 158.762 26.9254C158.212 27.1669 157.57 27.2896 156.833 27.2896C156.207 27.2896 155.704 27.25 155.316 27.1669C154.927 27.0877 154.507 26.9136 154.056 26.6444L155.046 23.6524C155.367 23.8146 155.66 23.9136 155.926 23.9492C156.191 23.9848 156.472 24.0007 156.777 24.0007C157.665 24.0007 158.287 23.3358 158.647 22.006L151.219 8.23294H155.783L159.808 16.564ZM178.48 8.23294H182.164V16.6155L183.155 16.2395L187.267 8.23294H191.633L187.013 16.5086L185.678 17.4268L187.295 18.5587L192.512 27.1035H187.833L183.269 18.907H182.164V27.1035H178.48V18.5825L177.458 18.9624L172.894 27.1035H168.358L173.543 18.8279L175.077 17.7751L173.603 16.7777L168.754 8.23294H173.262L177.37 16.2949H178.48V8.23294ZM200.776 19.0416H199.754V27.1035H195.872V8.23294H199.754V16.5917L200.661 16.2118L206.133 8.23294H210.558L204.774 16.1603L203.24 17.1814L204.829 18.2342L211.437 27.1035H206.644L200.776 19.0416ZM224.574 22.9242H218.481L216.976 27.1035H213.093L220.236 8.09837H223.101L230.248 27.1035H226.163L224.574 22.9242ZM219.472 19.9598H223.723L222.249 15.7527L221.655 12.7883H221.512L220.918 15.7804L219.472 19.9598Z" fill="url(#paint0_linear_336_1070)"/>
<path fill-rule="evenodd" clip-rule="evenodd" d="M98.7183 33.2539H230.766V35.6127H98.7183V33.2539Z" fill="#28B3A8"/>
<path fill-rule="evenodd" clip-rule="evenodd" d="M24.4836 20.3754C24.3726 20.3635 23.6912 20.6761 23.4971 20.7553C23.3109 20.8345 23.1841 20.8938 22.9979 20.9809C22.5344 21.2025 22.7127 21.0521 22.5502 21.2856C22.3323 21.5706 21.8966 22.7619 21.75 23.1893C19.4878 29.7157 21.128 36.8396 25.7632 41.676C28.6632 44.7077 32.3595 46.4808 36.86 46.8884C38.6626 47.0269 41.5467 46.5797 43.1591 46.1127C44.0703 45.8475 44.8745 45.4874 45.6391 45.052C46.0155 44.8422 46.3602 44.6167 46.7207 44.3871C46.8792 44.2882 47.8062 43.8132 47.8577 43.7539C48.2895 43.5362 49.2205 42.6773 49.6603 42.2934C49.8584 42.1233 50.0248 41.957 50.203 41.7671C50.5556 41.4029 50.8765 41.0309 51.2291 40.6193C52.8812 38.6761 54.1806 35.9729 54.7947 33.436C55.6702 29.8305 55.4048 25.7935 53.9865 22.3503C53.6973 21.6498 53.317 20.8068 52.9247 20.1656C52.794 19.9519 52.6435 19.7065 52.5365 19.5007L52.5325 19.4888L50.1436 19.1049C50.3338 20.312 50.3061 21.5904 49.4979 22.56C49.375 22.7065 49.2839 22.8133 49.1492 22.936C49.0938 22.9875 48.8046 23.221 48.8046 23.221C48.7966 22.9162 49.2998 22.0297 48.5985 21.0798C47.8419 20.0587 47.1525 20.4466 46.6692 20.5297C46.5741 20.2685 46.3404 19.9717 46.2691 19.6669C46.4632 19.4492 46.7643 19.287 47.1486 18.7487C47.0337 18.6933 46.0432 18.5706 45.9363 18.6458C45.754 18.7843 45.651 18.8754 45.4292 19.0099C44.1258 19.7936 42.751 20.5812 41.1386 20.5851C40.0848 20.5851 39.0746 20.4664 38.3179 20.0073C37.7434 19.663 36.9471 18.8516 36.7055 18.2896L35.6001 18.3173V18.345C35.8022 18.907 36.448 19.7065 36.7649 20.031C36.959 20.2289 36.6658 20.8384 36.5747 21.0363C35.7388 22.8252 33.9323 23.035 32.1257 22.7421C31.8325 22.6946 31.6979 22.6906 31.5592 22.6075C31.9752 21.9268 32.9299 20.9492 33.8372 20.6445C34.1066 20.5535 34.368 20.4585 34.3482 20.0944C34.3364 19.8292 34.0907 19.6036 33.8015 19.6234C33.4014 19.6511 32.6447 20.1181 32.3872 20.3041C31.5711 20.8938 30.9887 21.5785 30.4024 22.5403C30.2637 22.7658 30.1013 22.9004 29.9349 23.1379C29.5031 23.7553 29.2099 24.626 29.0712 25.3859C28.6196 27.8516 29.7447 29.4861 29.4793 33.0916C29.3802 34.4333 29.0475 35.2882 28.4492 36.2341C28.0174 36.9267 26.9557 37.9557 26.1356 38.122C26.2743 37.6668 26.3971 37.4412 26.4842 36.9109C26.7893 35.0349 26.7299 31.841 26.1673 30.0165C26.0286 29.5613 25.573 28.2078 25.1055 28.093C24.6262 27.9743 24.333 28.4927 24.5786 28.8766C25.2086 29.8582 25.4898 31.1167 25.5889 32.3318C25.6998 33.6259 25.7632 36.8199 25.157 37.7658C24.8837 38.1972 24.6222 38.2209 24.2657 37.841C22.6889 36.151 22.0075 31.9558 21.9124 29.7473C21.7777 26.7197 22.3997 23.8344 23.9131 21.3015C24.0755 21.0244 24.3647 20.6287 24.4836 20.3754Z" fill="#2A2928"/>
<path fill-rule="evenodd" clip-rule="evenodd" d="M0 33.8001V33.9821C1.12513 34.5679 3.60517 32.8463 4.63521 32.2249C5.7128 31.5758 7.56689 30.2935 8.62467 29.5613C11.18 27.7962 14.0443 25.9044 16.7185 24.3015C17.6614 23.7395 18.5884 23.2408 19.5471 22.6986C20.0582 22.4096 22.0906 21.345 22.5382 21.1986L23.081 20.2131C24.1229 18.3609 25.5214 16.6946 27.1536 15.3292C27.4389 15.0917 27.6924 14.8978 27.9896 14.6762C30.2715 12.9625 33.1517 11.7633 36.6974 11.4269C40.2233 11.0904 43.4878 12.0205 46.4314 13.6076C46.9266 13.8767 47.7982 14.4625 48.23 14.7989C49.6007 15.8635 50.1673 16.4295 51.2686 17.7276C51.6569 18.1828 52.1957 18.9031 52.5324 19.4888L52.5364 19.5007C52.8731 19.5126 53.3961 19.6392 53.7328 19.7025C60.0359 20.9176 61.8108 22.0376 67.5473 24.3569C68.1772 24.6141 68.9577 24.9584 69.6035 25.1603H69.647C69.7382 24.907 70.8276 23.9571 71.101 23.7632C71.723 23.3199 72.2618 23.0508 73.2245 22.9954C74.1476 22.9479 74.8963 23.1814 75.2331 23.8424C75.649 24.6656 75.34 25.4809 75.2014 26.2922C76.0452 26.0389 76.4731 25.2276 76.4889 24.1827C76.5127 22.0495 75.2212 20.3991 74.0327 18.9862C73.7078 18.5983 72.9907 17.8978 72.8164 17.6524L72.7649 17.6603C72.345 17.8107 71.9132 17.9611 71.4615 18.0719C70.9584 18.1946 70.5226 18.2421 70.1581 17.9295C70.0591 17.2448 70.9346 16.5324 71.1644 16.1524L67.8682 13.6947H67.8088C67.5632 13.9519 65.9943 14.9413 65.4991 14.973C64.9286 15.0086 65.0792 14.1142 65.1901 13.7263C65.3565 13.1208 65.5744 12.7923 65.6814 12.448C65.4635 12.2936 65.0435 12.1155 64.786 11.9849C64.473 11.8226 64.172 11.692 63.8352 11.5298C63.2132 11.2329 62.4882 10.9361 61.8266 10.6947L61.7632 10.7184C61.5691 10.8649 61.3829 11.0152 61.1769 11.1656C60.9907 11.3002 60.8124 11.4546 60.6104 11.5812C60.2776 11.787 59.7467 12.2184 59.2079 12.1036C58.9425 11.6999 59.513 10.386 59.7388 9.98227L59.7507 9.94665C59.0613 9.78043 58.3522 9.51526 57.6311 9.32924C51.7559 7.82529 46.2174 7.38994 40.0688 7.73426C30.6241 8.25669 22.6888 11.0786 15.4547 16.1762L13.1133 17.9295C12.836 18.1392 12.5824 18.345 12.3368 18.5587L10.4788 20.1577C10.348 20.2685 10.2609 20.3833 10.1301 20.4941C9.65075 20.8978 7.79667 22.7461 7.37276 23.2329C7.24995 23.3753 7.17864 23.4387 7.03602 23.5811L5.43152 25.4334C3.75175 27.436 1.25587 30.812 0.194124 33.2895C0.13866 33.4162 0.0554641 33.7011 0 33.8001Z" fill="#65B337"/>
<path fill-rule="evenodd" clip-rule="evenodd" d="M47.8577 43.7539C47.8062 43.8132 46.8792 44.2882 46.7207 44.3871C46.3602 44.6166 46.0155 44.8422 45.6392 45.052C44.8745 45.4874 44.0703 45.8475 43.1591 46.1127C41.5467 46.5797 38.6626 47.0269 36.86 46.8884C33.0686 46.928 28.8692 45.8554 25.5691 44.8066C22.3799 43.7974 21.1478 43.1998 18.3231 41.9887C15.0824 40.6074 6.90542 37.2869 3.82716 39.5586C2.39698 40.6154 2.93973 41.5573 4.10052 42.5942C5.09491 43.4808 6.85787 44.3871 8.37918 45.0164C11.1088 46.1483 15.7797 47.6206 18.7272 48.0599C25.0342 48.9979 43.4364 49.5916 48.7689 46.0494C51.0509 44.5335 50.6547 42.9227 48.139 43.7143L47.9171 43.7618C47.9092 43.7618 47.8894 43.7697 47.8855 43.7578C47.8815 43.7499 47.8656 43.7578 47.8577 43.7539Z" fill="#FBEB16"/>
<path fill-rule="evenodd" clip-rule="evenodd" d="M24.5747 20.3081L24.4836 20.3754C24.3647 20.6286 24.0755 21.0244 23.9131 21.3015C22.3997 23.8344 21.7777 26.7196 21.9124 29.7473C22.0075 31.9558 22.6889 36.151 24.2657 37.841C24.6222 38.2209 24.8837 38.1972 25.1571 37.7658C25.7632 36.8199 25.6998 33.6259 25.5889 32.3318C25.4899 31.1167 25.2086 29.8582 24.5787 28.8766C24.333 28.4927 24.6262 27.9743 25.1056 28.093C25.573 28.2078 26.0286 29.5613 26.1673 30.0165C26.7299 31.841 26.7893 35.0349 26.4842 36.9109C26.3971 37.4412 26.2743 37.6668 26.1356 38.122C26.9557 37.9557 28.0174 36.9267 28.4493 36.2341C29.0475 35.2882 29.3803 34.4333 29.4793 33.0916C29.7447 29.4861 28.6196 27.8516 29.0712 25.3859C29.2099 24.626 29.5031 23.7553 29.9349 23.1379C30.1013 22.9004 30.2637 22.7658 30.4024 22.5402C30.9887 21.5785 31.5711 20.8938 32.3872 20.3041C32.6447 20.1181 33.4014 19.6511 33.8015 19.6234C34.0907 19.6036 34.3364 19.8292 34.3483 20.0944C34.3681 20.4585 34.1066 20.5535 33.8372 20.6445C32.93 20.9492 31.9752 21.9268 31.5592 22.6075C31.6979 22.6906 31.8326 22.6946 32.1257 22.7421C33.9323 23.035 35.7388 22.8252 36.5747 21.0363C36.6659 20.8384 36.959 20.2289 36.7649 20.031C36.448 19.7065 35.8022 18.907 35.6002 18.345C34.9782 18.2659 33.2509 18.4835 32.5615 18.5548C29.4753 18.8754 27.4668 19.3384 24.5747 20.3081Z" fill="#DF7729"/>
<path fill-rule="evenodd" clip-rule="evenodd" d="M75.1698 26.3199C74.0011 26.5059 73.2603 26.3357 72.1867 26.031C71.7588 25.9123 69.8691 25.3305 69.6472 25.1603H69.6036L67.7297 27.5627C66.8265 28.75 65.943 30.064 65.0041 31.275C64.6792 31.6946 64.3623 32.0824 64.0493 32.494C63.4828 33.2341 62.6904 34.0969 62.0209 34.7737C61.5851 35.217 60.8958 35.9492 60.4124 36.3647C59.426 37.2077 58.5742 38.0191 57.4689 38.8344C56.736 39.3766 52.7307 42.3449 52.4731 42.4003C53.3645 42.4953 55.7059 41.965 56.5696 41.7354C60.4005 40.7222 64.9328 38.4267 67.809 35.9927C67.9516 35.87 67.9991 35.8383 68.1259 35.7156C68.9499 34.9399 69.3659 34.6787 70.3247 33.6457C71.5052 32.3753 72.6264 31.0811 73.5653 29.593C74.1121 28.7144 74.8608 27.4716 75.1698 26.3199Z" fill="#26B2A1"/>
<path fill-rule="evenodd" clip-rule="evenodd" d="M71.208 16.1603L71.5883 16.5284C71.8379 16.7263 72.7055 17.5179 72.765 17.6603L72.8165 17.6524C73.0581 17.5099 73.7197 17.3002 74.0248 17.1814C74.4447 17.0192 74.8488 16.8569 75.241 16.6867C76.0413 16.3384 76.8336 15.9902 77.622 15.6577C80.0664 14.6168 84.5947 12.4361 86.6825 11.0271C87.2886 10.6195 88.0651 9.92686 88.4494 9.37673C88.8337 8.81869 89.4398 7.31474 88.6792 6.82793C87.3916 6.00076 84.2579 6.95062 83.0219 7.40972C79.8406 8.58914 78.145 10.1485 75.7244 12.0957C75.2173 12.5034 74.314 13.2316 73.8703 13.6551C73.7792 13.7382 73.7197 13.7698 73.6326 13.845C73.1176 14.3081 71.3546 15.8833 71.208 16.1603Z" fill="#884190"/>
<path fill-rule="evenodd" clip-rule="evenodd" d="M22.5381 21.1986L22.55 21.2856C22.7124 21.0521 22.5341 21.2025 22.9976 20.9809C23.1838 20.8938 23.3106 20.8345 23.4968 20.7553C23.6909 20.6761 24.3724 20.3635 24.4833 20.3754L24.5744 20.3081C24.7408 19.9835 25.2043 19.4215 25.4341 19.1564C26.9713 17.3872 29.1859 15.4994 31.6817 15.2105C32.688 15.0957 34.4391 15.3173 35.1086 15.8279C35.073 16.3701 35.0492 16.6471 35.168 17.1854C35.2473 17.5258 35.4097 18.1115 35.5999 18.3173L36.7052 18.2896L36.6973 18.2619C36.3447 17.8107 36.0713 16.8609 36.0872 16.1683C36.9746 16.2157 37.6441 16.2395 38.4444 15.9506C38.7851 15.8279 39.0466 15.6617 39.3081 15.4915C40.663 14.6168 42.7112 13.9361 44.4741 14.0667C45.4844 14.1419 45.7023 14.3714 46.3995 14.791C47.1047 15.2144 47.2909 15.3609 47.6871 16.1485C47.8337 16.4374 47.9169 16.8688 48.1427 17.0152C48.3408 17.1498 48.5785 17.0785 49.0777 17.4031C49.4699 17.6564 50.0364 18.4202 50.1117 19.093L50.1434 19.1049L52.5323 19.4888C52.1955 18.9031 51.6567 18.1828 51.2685 17.7276C50.1671 16.4295 49.6006 15.8635 48.2298 14.7989C47.798 14.4625 46.9264 13.8767 46.4312 13.6076C43.4877 12.0205 40.2232 11.0904 36.6973 11.4269C33.1515 11.7633 30.2714 12.9625 27.9894 14.6762C27.6923 14.8978 27.4387 15.0917 27.1535 15.3292C25.5213 16.6946 24.1228 18.3609 23.0808 20.2131L22.5381 21.1986Z" fill="#758964"/>
<path fill-rule="evenodd" clip-rule="evenodd" d="M47.3782 35.0112C47.0335 36.9425 47.3346 36.5824 45.8925 37.8885C44.1335 39.4795 41.7486 40.6549 39.1893 40.9557C35.7941 41.3475 32.4702 39.9979 30.0219 37.932L29.0473 37.0929C28.873 37.4452 28.049 38.2051 27.6805 38.4505C27.1496 38.8027 26.492 39.1866 25.7036 39.2539C25.9215 39.7169 27.2368 40.7895 27.6845 41.118C29.1701 42.2064 30.2319 42.6655 32.0503 43.1523C36.9747 44.4781 42.1249 43.8647 46.0114 40.5639C47.8734 38.9808 49.4383 36.8832 50.1514 34.5085C50.2821 34.0771 50.6308 32.6642 50.1395 32.4386C49.981 32.5217 49.6641 33.2183 49.5611 33.4083C49.363 33.7645 49.1966 34.0653 48.9906 34.4175C48.7252 34.8726 48.325 35.6325 47.7704 35.4228C47.5208 35.3278 47.5129 35.1972 47.3782 35.0112Z" fill="#F6C698"/>
<path fill-rule="evenodd" clip-rule="evenodd" d="M65.7012 12.4598C66.0696 12.6261 67.5988 13.4849 67.8088 13.6947H67.8682L72.9075 9.62212L75.1657 7.48888C76.2195 6.44403 76.8217 6.01659 77.9033 4.63929C78.3549 4.06542 78.8224 3.47967 79.1195 2.66041C79.4365 1.80158 79.3216 0.697361 78.6956 0.305542C77.0515 -0.723476 73.8148 2.16965 72.5351 3.28574C72.2539 3.52716 71.2199 4.55222 70.9544 4.90446L69.5203 6.66567C68.6012 7.87278 66.2756 11.0311 65.7012 12.4598Z" fill="#E53524"/>
<path fill-rule="evenodd" clip-rule="evenodd" d="M43.9595 27.812C44.4666 28.9162 44.7201 29.5217 44.728 30.9188C44.728 31.5402 44.6726 32.0903 44.5339 32.6484C44.3358 33.436 44.0744 33.804 44.007 34.0613C44.6924 33.6616 45.6907 32.4742 46.182 31.8252C47.2319 30.4439 47.9489 29.2368 48.8205 27.7645C48.9394 27.5627 49.082 27.2302 49.2484 27.0877C49.4781 26.8898 49.8624 26.9215 50.0566 27.1273C50.4884 27.5785 50.219 30.4835 50.1279 31.2632C50.9123 31.283 51.665 31.4452 52.2949 31.7104C53.2339 32.1022 53.6498 32.5732 53.939 32.7196C53.9707 32.4426 54.046 32.118 54.0896 31.841C54.6244 28.4848 54.1252 25.0772 52.7664 22.0297C52.6317 21.725 51.5066 19.568 51.2015 19.3503C51.2807 20.6959 51.2253 21.6221 50.6429 22.6392C50.0011 23.7672 49.0463 24.4875 47.6637 24.6102C47.4339 24.63 47.4894 24.6141 47.3982 24.8081C46.9466 25.7737 46.2414 26.6128 45.3698 27.2183C44.8786 27.5587 44.5577 27.6181 43.9595 27.812Z" fill="#7D61A2"/>
<path fill-rule="evenodd" clip-rule="evenodd" d="M30.2121 34.8449C30.1249 34.9755 30.0219 35.3436 29.9546 35.5217C29.8595 35.7631 29.7367 35.9729 29.6416 36.2064C29.8436 36.5349 30.8895 37.3621 31.258 37.6352C35.7347 40.9201 40.6552 40.833 44.9893 37.37C45.2429 37.1642 45.9401 36.5309 46.0986 36.3014C46.2135 36.1352 46.2491 35.6088 46.2887 35.3832C46.4076 34.7302 46.4789 34.1721 46.8355 33.7565C47.1841 33.3529 47.8932 33.1906 48.2617 33.6853C48.646 33.242 49.0738 30.5547 49.058 29.7394L48.3607 30.8041C48.0081 31.3779 47.2435 32.4228 46.8275 32.9373C46.2135 33.7011 45.7935 34.1682 45.0448 34.7816C42.3072 37.0296 38.6862 37.9122 35.081 37.2671C33.5122 36.9861 31.876 36.3093 30.7073 35.2842C30.5171 35.118 30.3904 34.9795 30.2121 34.8449Z" fill="#61B8E5"/>
<path fill-rule="evenodd" clip-rule="evenodd" d="M36.6972 18.2619C37.0022 18.3054 37.5965 18.254 37.9372 18.254L41.479 18.3054L45.829 18.6062C45.932 18.63 45.8884 18.6181 45.9359 18.6458C46.0429 18.5706 47.0333 18.6933 47.1482 18.7487C47.687 18.6854 49.4262 19.0337 50.1116 19.093C50.0363 18.4202 49.4698 17.6564 49.0776 17.4031C48.5784 17.0785 48.3407 17.1498 48.1426 17.0152C47.9168 16.8688 47.8336 16.4374 47.687 16.1485C47.2908 15.3609 47.1046 15.2144 46.3994 14.791C45.7022 14.3714 45.4843 14.1419 44.474 14.0667C42.7111 13.9361 40.6629 14.6168 39.308 15.4915C39.0465 15.6617 38.785 15.8279 38.4443 15.9506C37.644 16.2395 36.9745 16.2157 36.0871 16.1683C36.0712 16.8609 36.3446 17.8107 36.6972 18.2619Z" fill="#9D8827"/>
<path fill-rule="evenodd" clip-rule="evenodd" d="M29.1582 43.2116C29.3761 43.3383 29.6257 43.5243 29.8674 43.6707C31.7809 44.8264 34.0509 45.5982 36.325 45.8356C40.4689 46.2631 44.6327 45.048 47.703 42.6378C47.9486 42.4438 48.1428 42.2855 48.3686 42.1074C48.4835 42.0164 48.5706 41.9214 48.6855 41.8304L50.2306 40.2592C50.916 39.4478 51.637 38.4505 52.2273 37.3542C52.5878 36.6813 53.5624 34.6193 53.6416 33.8001C53.1108 33.3489 52.3065 32.6167 51.3121 32.4386C51.6449 34.9241 49.9572 37.5877 48.9034 38.9768C45.0011 44.1021 38.8486 45.7367 32.5891 44.3198C31.8601 44.1536 30.632 43.8251 29.9505 43.5481C29.701 43.4452 29.388 43.2789 29.1582 43.2116Z" fill="#F6C698"/>
<path fill-rule="evenodd" clip-rule="evenodd" d="M38.6899 21.2896C38.7573 21.8674 39.3159 22.4373 39.6645 23.3991C39.926 24.1234 40.3974 24.8358 40.8015 25.3305C41.6929 26.4228 43.0439 27.5785 44.9098 26.3318C45.4526 25.9716 45.9676 25.3305 46.344 24.6933C46.546 24.3489 46.649 23.9848 46.9184 23.7395C47.2116 23.4703 47.4414 23.2764 47.6949 22.936C47.9287 22.6234 48.103 22.2355 47.8574 21.7764C47.6236 21.345 47.2869 21.2936 46.8749 21.6023C46.1934 22.1128 45.7339 20.8186 45.4566 20.3397L45.3615 20.2052C44.9138 20.407 44.4859 20.6841 44.0105 20.9136C42.1049 21.8358 40.7698 21.6972 38.6899 21.2896Z" fill="#F6C698"/>
<path fill-rule="evenodd" clip-rule="evenodd" d="M59.7507 9.94665L59.7388 9.98227C59.8497 9.98623 61.6404 10.5403 61.7632 10.7184L61.8266 10.6947C61.8781 10.5284 62.203 10.3306 62.3456 10.2039L63.9659 8.75141C64.1838 8.50998 64.4334 8.3398 64.7503 8.00339C65.0316 7.70656 65.3644 7.45326 65.7962 6.99812C66.4816 6.26593 67.3611 5.6881 68.0227 4.61555C68.6566 3.59049 68.8071 2.37149 67.7256 1.79762C65.4991 0.622164 62.1792 5.75142 61.2086 7.27516C60.9392 7.69469 60.7134 8.11817 60.4558 8.56935C60.2181 8.98492 59.9963 9.55088 59.7507 9.94665Z" fill="#F9B11C"/>
<path fill-rule="evenodd" clip-rule="evenodd" d="M24.5747 20.3081C27.4668 19.3384 29.4754 18.8754 32.5615 18.5548C33.2509 18.4835 34.9782 18.2659 35.6002 18.345V18.3173C35.41 18.1115 35.2476 17.5258 35.1683 17.1854C35.0495 16.6471 35.0733 16.3701 35.1089 15.8279C34.4394 15.3173 32.6883 15.0957 31.682 15.2105C29.1862 15.4994 26.9715 17.3872 25.4344 19.1564C25.2046 19.4215 24.7411 19.9835 24.5747 20.3081Z" fill="#B4A22C"/>
<path fill-rule="evenodd" clip-rule="evenodd" d="M30.8935 23.5059C29.9783 24.7685 30.1526 24.9584 30.9569 26.4268C31.2183 26.9057 31.5234 27.3291 31.8166 27.6972C32.0305 27.9663 32.6129 28.5838 32.9536 28.7064C33.3101 27.7328 34.2689 26.6959 34.9542 26.1933C35.806 25.564 36.9351 25.093 38.3019 25.0218C38.4247 24.63 38.2979 23.3556 38.2385 22.9044C38.2029 22.6154 38.0127 22.3661 37.8899 22.1009C37.7591 21.816 37.6878 21.4954 37.6324 21.1432C37.3115 21.6537 37.3115 21.9782 36.6657 22.6194C36.2854 22.9954 35.8258 23.3358 35.1959 23.5772C33.9559 24.0521 32.1375 23.8226 30.8935 23.5059Z" fill="#F6C698"/>
<path fill-rule="evenodd" clip-rule="evenodd" d="M34.269 32.4109C34.3958 32.7671 34.685 32.9729 34.9069 33.1787C35.3744 33.6141 35.414 33.4241 35.5289 33.9624C36.0162 36.2262 37.6524 35.2051 38.6864 35.7552C39.2767 36.0718 38.8646 36.4399 41.3566 35.5613C40.9921 35.3476 40.6593 35.4267 40.176 34.7777C39.8788 34.3779 39.3599 33.1352 39.344 32.6682C39.34 32.4901 39.657 31.3027 39.1855 31.1246C38.6428 30.9149 38.6269 31.3384 38.5834 31.4808C38.4487 31.936 38.1119 32.4188 37.5573 32.399C36.8759 32.3753 36.8481 31.8687 36.6263 31.3779C36.3727 30.812 35.5962 31.1444 35.2912 31.4333C35.097 31.6114 34.9703 31.7579 34.8078 31.9281C34.6256 32.118 34.4394 32.2209 34.269 32.4109Z" fill="#F6C698"/>
<path fill-rule="evenodd" clip-rule="evenodd" d="M30.0771 14.5416C30.3188 14.4981 30.6001 14.3912 30.8536 14.3358C32.1927 14.039 33.924 14.1498 35.168 14.7158C35.8256 15.0165 35.8375 15.1867 36.7408 15.2065C37.9847 15.2303 38.2541 14.9334 39.0504 14.4664C39.8983 13.9677 40.9679 13.5522 41.9465 13.3107C42.2079 13.2474 42.5486 13.2078 42.7903 13.1247C39.2525 11.9493 34.7797 12.2065 31.3568 13.8648C30.9448 14.0627 30.402 14.3081 30.0771 14.5416Z" fill="#6D9184"/>
<path fill-rule="evenodd" clip-rule="evenodd" d="M45.936 18.6458C45.8885 18.6181 45.932 18.63 45.829 18.6062L41.4791 18.3054L37.9373 18.254C37.5966 18.254 37.0023 18.3054 36.6973 18.2619L36.7052 18.2896C36.9469 18.8516 37.7432 19.663 38.3176 20.0073C39.0743 20.4664 40.0845 20.5851 41.1384 20.5851C42.7508 20.5812 44.1255 19.7936 45.4289 19.0099C45.6508 18.8754 45.7538 18.7843 45.936 18.6458Z" fill="#A64C1F"/>
<path fill-rule="evenodd" clip-rule="evenodd" d="M69.647 25.1603C69.8688 25.3305 71.7586 25.9123 72.1864 26.031C73.2601 26.3357 74.0009 26.5059 75.1696 26.3199L75.2013 26.2922C75.34 25.4809 75.649 24.6656 75.233 23.8424C74.8962 23.1814 74.1475 22.9479 73.2244 22.9954C72.2617 23.0508 71.7229 23.3199 71.1009 23.7632C70.8276 23.9571 69.7381 24.907 69.647 25.1603Z" fill="#302858"/>
<path fill-rule="evenodd" clip-rule="evenodd" d="M47.1485 18.7487C46.7643 19.287 46.4632 19.4492 46.269 19.6669C46.3404 19.9717 46.5741 20.2685 46.6692 20.5297C47.1525 20.4466 47.8418 20.0587 48.5985 21.0798C49.2998 22.0297 48.7966 22.9162 48.8045 23.221C48.8045 23.221 49.0937 22.9875 49.1492 22.936C49.2839 22.8133 49.375 22.7065 49.4978 22.56C50.306 21.5904 50.3338 20.312 50.1436 19.1049L50.1119 19.093C49.4265 19.0337 47.6873 18.6854 47.1485 18.7487Z" fill="#A64C1F"/>
<path fill-rule="evenodd" clip-rule="evenodd" d="M33.2033 32.498C33.1201 32.2209 32.716 32.1695 32.5417 31.3225C32.4031 30.6576 32.5298 30.2856 32.6051 29.6761C32.3159 29.5653 32.0267 29.2922 31.8048 29.1181C31.2264 28.659 30.648 27.8278 30.24 27.1827C30.1449 27.0323 30.0656 26.8582 29.9626 26.7315C29.9508 27.6022 30.3905 29.498 30.4895 30.7526C30.545 31.4492 30.339 31.7302 31.3255 32.2368C31.7177 32.4426 32.7358 32.7632 33.2033 32.498Z" fill="#F6C698"/>
<path fill-rule="evenodd" clip-rule="evenodd" d="M35.7784 36.1391C35.6001 36.052 35.3149 35.7433 35.1881 35.585C35.0257 35.3832 34.8751 35.1101 34.7563 34.8212C34.467 34.1167 34.7206 34.3423 34.3522 34.0336C34.2293 33.9307 34.1461 33.8634 34.0313 33.7565C33.9084 33.6457 33.8332 33.5389 33.7104 33.4399C32.811 33.5705 32.1692 33.7011 31.1828 33.2777C30.9411 33.1708 30.6995 32.9967 30.4974 32.9254C30.4499 33.341 30.6598 33.5982 31.0045 33.9267C31.4958 34.3937 31.8167 34.7183 32.5417 35.1141C32.9933 35.3674 33.4885 35.5929 34.0194 35.771C34.364 35.8858 35.4179 36.1668 35.7784 36.1391Z" fill="#B3CC1D"/>
<path fill-rule="evenodd" clip-rule="evenodd" d="M67.8088 13.6947C67.5988 13.4849 66.0696 12.6261 65.7012 12.4598L65.6813 12.448C65.5744 12.7923 65.3565 13.1208 65.1901 13.7263C65.0792 14.1142 64.9286 15.0086 65.4991 14.973C65.9943 14.9413 67.5632 13.9519 67.8088 13.6947Z" fill="#302858"/>
<path fill-rule="evenodd" clip-rule="evenodd" d="M61.7634 10.7184C61.6406 10.5403 59.8499 9.98623 59.739 9.98227C59.5132 10.386 58.9427 11.6999 59.2081 12.1036C59.7469 12.2184 60.2778 11.787 60.6106 11.5812C60.8126 11.4546 60.9909 11.3002 61.1771 11.1656C61.3831 11.0152 61.5693 10.8649 61.7634 10.7184Z" fill="#E53524"/>
<path fill-rule="evenodd" clip-rule="evenodd" d="M72.765 17.6603C72.7056 17.5178 71.8379 16.7263 71.5883 16.5284L71.208 16.1603L71.1644 16.1524C70.9347 16.5324 70.0591 17.2448 70.1582 17.9295C70.5226 18.2421 70.9584 18.1946 71.4616 18.0719C71.9132 17.9611 72.345 17.8107 72.765 17.6603Z" fill="#553929"/>
</g>
<defs>
<linearGradient id="paint0_linear_336_1070" x1="146.723" y1="8.77911" x2="146.723" y2="25.0178" gradientUnits="userSpaceOnUse">
<stop stop-color="#65B337"/>
<stop offset="1" stop-color="#51B9AD"/>
</linearGradient>
<clipPath id="clip0_336_1070">
<rect width="231" height="50" fill="white"/>
</clipPath>
</defs>
</svg>
