<svg width="14" height="14" viewBox="0 0 14 14" xmlns="http://www.w3.org/2000/svg">
<path d="M0.69302 13.3001C0.310276 12.9135 0.310276 12.2867 0.693021 11.9001L11.7813 0.700099C12.1641 0.313501 12.7846 0.313499 13.1674 0.700099C13.5501 1.0867 13.5501 1.7135 13.1674 2.1001L2.07906 13.3001C1.69632 13.6867 1.07577 13.6867 0.69302 13.3001Z"/>
<path d="M0.83237 0.7C1.21511 0.313401 1.83567 0.313401 2.21841 0.7L13.3067 11.9C13.6895 12.2866 13.6895 12.9134 13.3067 13.3C12.924 13.6866 12.3034 13.6866 11.9207 13.3L0.832371 2.1C0.449626 1.7134 0.449625 1.0866 0.83237 0.7Z"/>
</svg>
