<svg width="33" height="10" viewBox="0 0 33 10" xmlns="http://www.w3.org/2000/svg">
<path fill-rule="evenodd" clip-rule="evenodd" d="M26.5766 0.746141C26.9377 0.328235 27.5692 0.282161 27.9871 0.643232L32.1538 4.24323C32.3736 4.43319 32.5 4.70937 32.5 4.99992C32.5 5.29047 32.3736 5.56665 32.1538 5.75661L27.9871 9.35661C27.5692 9.71768 26.9377 9.6716 26.5766 9.2537C26.2156 8.83579 26.2616 8.2043 26.6796 7.84323L28.813 5.99992H1.5C0.947715 5.99992 0.5 5.5522 0.5 4.99992C0.5 4.44763 0.947715 3.99992 1.5 3.99992H28.813L26.6796 2.15661C26.2616 1.79553 26.2156 1.16405 26.5766 0.746141Z"/>
</svg>
