<svg width="24" height="24" viewBox="0 0 24 24" xmlns="http://www.w3.org/2000/svg">
<path fill-rule="evenodd" clip-rule="evenodd" d="M11 3.74994C6.99594 3.74994 3.75 6.99587 3.75 10.9999C3.75 15.004 6.99594 18.2499 11 18.2499C15.0041 18.2499 18.25 15.004 18.25 10.9999C18.25 6.99587 15.0041 3.74994 11 3.74994ZM2.25 10.9999C2.25 6.16745 6.16751 2.24994 11 2.24994C15.8325 2.24994 19.75 6.16745 19.75 10.9999C19.75 15.8324 15.8325 19.7499 11 19.7499C6.16751 19.7499 2.25 15.8324 2.25 10.9999Z"/>
<path fill-rule="evenodd" clip-rule="evenodd" d="M14.75 10.9999C14.75 11.4142 14.4142 11.7499 14 11.7499H8C7.58579 11.7499 7.25 11.4142 7.25 10.9999C7.25 10.5857 7.58579 10.2499 8 10.2499H14C14.4142 10.2499 14.75 10.5857 14.75 10.9999Z"/>
<path fill-rule="evenodd" clip-rule="evenodd" d="M11 14.7499C10.5858 14.7499 10.25 14.4142 10.25 13.9999L10.25 7.99994C10.25 7.58573 10.5858 7.24994 11 7.24994C11.4142 7.24994 11.75 7.58573 11.75 7.99994L11.75 13.9999C11.75 14.4142 11.4142 14.7499 11 14.7499Z"/>
<path fill-rule="evenodd" clip-rule="evenodd" d="M15.9697 16.4276C16.2626 16.1347 16.7374 16.1347 17.0303 16.4276L22.0303 21.4276C22.3232 21.7205 22.3232 22.1954 22.0303 22.4883C21.7374 22.7812 21.2626 22.7812 20.9697 22.4883L15.9697 17.4882C15.6768 17.1953 15.6768 16.7204 15.9697 16.4276Z"/>
</svg>
