<svg width="20" height="19" viewBox="0 0 20 19" xmlns="http://www.w3.org/2000/svg">
<path d="M8.97182 0.708435C9.43822 -0.0665491 10.5618 -0.0665484 11.0282 0.708436L13.3586 4.58084C13.5262 4.85925 13.7995 5.05782 14.116 5.13113L18.519 6.15088C19.4002 6.35496 19.7474 7.42353 19.1545 8.10658L16.1918 11.5196C15.9788 11.765 15.8744 12.0863 15.9025 12.41L16.2932 16.9126C16.3714 17.8138 15.4625 18.4742 14.6296 18.1213L10.4681 16.3583C10.1689 16.2315 9.83109 16.2315 9.53189 16.3583L5.37037 18.1213C4.53753 18.4742 3.62856 17.8138 3.70676 16.9126L4.09753 12.41C4.12563 12.0863 4.02123 11.765 3.80822 11.5196L0.845497 8.10658C0.252567 7.42353 0.599765 6.35496 1.48094 6.15088L5.88396 5.13113C6.20053 5.05782 6.47382 4.85925 6.64138 4.58084L8.97182 0.708435Z"/>
</svg>
