<svg width="33" height="32" viewBox="0 0 33 32" fill="none" xmlns="http://www.w3.org/2000/svg">
<path fill-rule="evenodd" clip-rule="evenodd" d="M4.67383 14.0191C4.67383 7.56738 9.95614 2.35521 16.4499 2.35521C22.9436 2.35521 28.2259 7.56738 28.2259 14.0191C28.2259 18.0318 25.8859 21.9921 23.4059 24.8749C22.1509 26.3338 20.8189 27.5654 19.6439 28.4413C19.0574 28.8785 18.4936 29.2394 17.9848 29.4957C17.5077 29.7359 16.963 29.9448 16.4499 29.9448C15.9368 29.9448 15.392 29.7359 14.915 29.4957C14.4062 29.2394 13.8424 28.8785 13.2559 28.4413C12.0809 27.5654 10.7489 26.3338 9.49385 24.8749C7.01386 21.9921 4.67383 18.0318 4.67383 14.0191ZM16.4499 17.4959C14.22 17.4959 12.4124 15.6882 12.4124 13.4584C12.4124 11.2285 14.22 9.42085 16.4499 9.42085C18.6797 9.42085 20.4874 11.2285 20.4874 13.4584C20.4874 15.6882 18.6797 17.4959 16.4499 17.4959Z" fill="#42A5B5"/>
</svg>
