<svg xmlns="http://www.w3.org/2000/svg" xmlns:xlink="http://www.w3.org/1999/xlink"><defs><style>
    .sprite-symbol-usage {display: none;}
    .sprite-symbol-usage:target {display: inline;}
  </style><symbol viewBox="0 0 8 6" fill="none" id="icon-accept">
<path d="M7.85743 0.829457L7.15248 0.139535C7.05743 0.0465116 6.93861 0 6.80396 0C6.66931 0 6.5505 0.0465116 6.45545 0.139535L3.06535 3.45736L1.55248 1.96899C1.45743 1.87597 1.33861 1.82946 1.20396 1.82946C1.06931 1.82946 0.950495 1.87597 0.855446 1.96899L0.150495 2.65891C0.0475248 2.75194 0 2.86822 0 3C0 3.13178 0.0475247 3.24806 0.142574 3.34109L2.01188 5.17054L2.71683 5.86047C2.81188 5.95349 2.93069 6 3.06535 6C3.2 6 3.31881 5.95349 3.41386 5.86047L4.11881 5.17054L7.85743 1.51163C7.95248 1.4186 8 1.30233 8 1.17054C8 1.03876 7.95248 0.922481 7.85743 0.829457Z" fill="white" />
</symbol><symbol viewBox="0 0 28 16" id="icon-arrow-big">
<path fill-rule="evenodd" clip-rule="evenodd" d="M21.3431 0.92888L27.7071 7.29284C28.0976 7.68336 28.0976 8.31653 27.7071 8.70705L21.3431 15.071C20.9526 15.4615 20.3195 15.4615 19.9289 15.071C19.5384 14.6805 19.5384 14.0473 19.9289 13.6568L24.5858 8.99995L1 8.99995C0.447715 8.99995 0 8.55223 0 7.99995C0 7.44766 0.447715 6.99995 1 6.99995L24.5858 6.99995L19.9289 2.34309C19.5384 1.95257 19.5384 1.3194 19.9289 0.92888C20.3195 0.538355 20.9526 0.538355 21.3431 0.92888Z" />
</symbol><symbol viewBox="0 0 8 6" id="icon-arrow-down">
<path fill-rule="evenodd" clip-rule="evenodd" d="M0.646484 1.6767L1.35359 0.969666L4.00004 3.61611L6.64648 0.969666L7.35359 1.67677L4.00004 5.03033L0.646484 1.67677Z" />
</symbol><symbol viewBox="0 0 33 10" id="icon-arrow-pointer">
<path fill-rule="evenodd" clip-rule="evenodd" d="M26.5766 0.746141C26.9377 0.328235 27.5692 0.282161 27.9871 0.643232L32.1538 4.24323C32.3736 4.43319 32.5 4.70937 32.5 4.99992C32.5 5.29047 32.3736 5.56665 32.1538 5.75661L27.9871 9.35661C27.5692 9.71768 26.9377 9.6716 26.5766 9.2537C26.2156 8.83579 26.2616 8.2043 26.6796 7.84323L28.813 5.99992H1.5C0.947715 5.99992 0.5 5.5522 0.5 4.99992C0.5 4.44763 0.947715 3.99992 1.5 3.99992H28.813L26.6796 2.15661C26.2616 1.79553 26.2156 1.16405 26.5766 0.746141Z" />
</symbol><symbol viewBox="0 0 8 12" id="icon-arrow-right">
<path fill-rule="evenodd" clip-rule="evenodd" d="M7.94976 5.95708L1.09976 -6.09871e-05L0.0497558 0.899939L5.89976 5.99994L-0.000244626 11.0999L1.04976 11.9999L7.99976 5.99994L7.94976 5.95708Z" />
</symbol><symbol viewBox="0 0 14 14" id="icon-cross">
<path d="M0.69302 13.3001C0.310276 12.9135 0.310276 12.2867 0.693021 11.9001L11.7813 0.700099C12.1641 0.313501 12.7846 0.313499 13.1674 0.700099C13.5501 1.0867 13.5501 1.7135 13.1674 2.1001L2.07906 13.3001C1.69632 13.6867 1.07577 13.6867 0.69302 13.3001Z" />
<path d="M0.83237 0.7C1.21511 0.313401 1.83567 0.313401 2.21841 0.7L13.3067 11.9C13.6895 12.2866 13.6895 12.9134 13.3067 13.3C12.924 13.6866 12.3034 13.6866 11.9207 13.3L0.832371 2.1C0.449626 1.7134 0.449625 1.0866 0.83237 0.7Z" />
</symbol><symbol viewBox="0 0 33 32" fill="none" id="icon-pin">
<path fill-rule="evenodd" clip-rule="evenodd" d="M4.67383 14.0191C4.67383 7.56738 9.95614 2.35521 16.4499 2.35521C22.9436 2.35521 28.2259 7.56738 28.2259 14.0191C28.2259 18.0318 25.8859 21.9921 23.4059 24.8749C22.1509 26.3338 20.8189 27.5654 19.6439 28.4413C19.0574 28.8785 18.4936 29.2394 17.9848 29.4957C17.5077 29.7359 16.963 29.9448 16.4499 29.9448C15.9368 29.9448 15.392 29.7359 14.915 29.4957C14.4062 29.2394 13.8424 28.8785 13.2559 28.4413C12.0809 27.5654 10.7489 26.3338 9.49385 24.8749C7.01386 21.9921 4.67383 18.0318 4.67383 14.0191ZM16.4499 17.4959C14.22 17.4959 12.4124 15.6882 12.4124 13.4584C12.4124 11.2285 14.22 9.42085 16.4499 9.42085C18.6797 9.42085 20.4874 11.2285 20.4874 13.4584C20.4874 15.6882 18.6797 17.4959 16.4499 17.4959Z" fill="#42A5B5" />
</symbol><symbol viewBox="0 0 30 34" id="icon-play">
<path d="M27.2363 12.6681C30.5697 14.5926 30.5697 19.4039 27.2363 21.3284L8.13796 32.3548C4.80463 34.2793 0.637966 31.8737 0.637966 28.0247V5.97181C0.637966 2.12281 4.80463 -0.282813 8.13797 1.64169L27.2363 12.6681Z" />
</symbol><symbol viewBox="0 0 20 19" id="icon-star">
<path d="M8.97182 0.708435C9.43822 -0.0665491 10.5618 -0.0665484 11.0282 0.708436L13.3586 4.58084C13.5262 4.85925 13.7995 5.05782 14.116 5.13113L18.519 6.15088C19.4002 6.35496 19.7474 7.42353 19.1545 8.10658L16.1918 11.5196C15.9788 11.765 15.8744 12.0863 15.9025 12.41L16.2932 16.9126C16.3714 17.8138 15.4625 18.4742 14.6296 18.1213L10.4681 16.3583C10.1689 16.2315 9.83109 16.2315 9.53189 16.3583L5.37037 18.1213C4.53753 18.4742 3.62856 17.8138 3.70676 16.9126L4.09753 12.41C4.12563 12.0863 4.02123 11.765 3.80822 11.5196L0.845497 8.10658C0.252567 7.42353 0.599765 6.35496 1.48094 6.15088L5.88396 5.13113C6.20053 5.05782 6.47382 4.85925 6.64138 4.58084L8.97182 0.708435Z" />
</symbol><symbol viewBox="0 0 33 20" id="icon-vk">
<path d="M17.4574 20C6.50647 20 0.260276 12.4925 0 0H5.4855C5.66568 9.16915 9.70965 13.053 12.9128 13.8538V0H18.0782V7.90784C21.2413 7.56752 24.5642 3.96396 25.6854 0H30.8507C29.9898 4.8849 26.3862 8.48846 23.8237 9.96992C26.3862 11.1711 30.4905 14.3143 32.0521 20H26.3662C25.145 16.1962 22.1022 13.2532 18.0782 12.8528V20H17.4574Z" />
</symbol><symbol viewBox="0 0 24 24" id="icon-zoom">
<path fill-rule="evenodd" clip-rule="evenodd" d="M11 3.74994C6.99594 3.74994 3.75 6.99587 3.75 10.9999C3.75 15.004 6.99594 18.2499 11 18.2499C15.0041 18.2499 18.25 15.004 18.25 10.9999C18.25 6.99587 15.0041 3.74994 11 3.74994ZM2.25 10.9999C2.25 6.16745 6.16751 2.24994 11 2.24994C15.8325 2.24994 19.75 6.16745 19.75 10.9999C19.75 15.8324 15.8325 19.7499 11 19.7499C6.16751 19.7499 2.25 15.8324 2.25 10.9999Z" />
<path fill-rule="evenodd" clip-rule="evenodd" d="M14.75 10.9999C14.75 11.4142 14.4142 11.7499 14 11.7499H8C7.58579 11.7499 7.25 11.4142 7.25 10.9999C7.25 10.5857 7.58579 10.2499 8 10.2499H14C14.4142 10.2499 14.75 10.5857 14.75 10.9999Z" />
<path fill-rule="evenodd" clip-rule="evenodd" d="M11 14.7499C10.5858 14.7499 10.25 14.4142 10.25 13.9999L10.25 7.99994C10.25 7.58573 10.5858 7.24994 11 7.24994C11.4142 7.24994 11.75 7.58573 11.75 7.99994L11.75 13.9999C11.75 14.4142 11.4142 14.7499 11 14.7499Z" />
<path fill-rule="evenodd" clip-rule="evenodd" d="M15.9697 16.4276C16.2626 16.1347 16.7374 16.1347 17.0303 16.4276L22.0303 21.4276C22.3232 21.7205 22.3232 22.1954 22.0303 22.4883C21.7374 22.7812 21.2626 22.7812 20.9697 22.4883L15.9697 17.4882C15.6768 17.1953 15.6768 16.7204 15.9697 16.4276Z" />
</symbol></defs><use id="icon-accept-usage" xlink:href="#icon-accept" class="sprite-symbol-usage" /><use id="icon-arrow-big-usage" xlink:href="#icon-arrow-big" class="sprite-symbol-usage" /><use id="icon-arrow-down-usage" xlink:href="#icon-arrow-down" class="sprite-symbol-usage" /><use id="icon-arrow-pointer-usage" xlink:href="#icon-arrow-pointer" class="sprite-symbol-usage" /><use id="icon-arrow-right-usage" xlink:href="#icon-arrow-right" class="sprite-symbol-usage" /><use id="icon-cross-usage" xlink:href="#icon-cross" class="sprite-symbol-usage" /><use id="icon-pin-usage" xlink:href="#icon-pin" class="sprite-symbol-usage" /><use id="icon-play-usage" xlink:href="#icon-play" class="sprite-symbol-usage" /><use id="icon-star-usage" xlink:href="#icon-star" class="sprite-symbol-usage" /><use id="icon-vk-usage" xlink:href="#icon-vk" class="sprite-symbol-usage" /><use id="icon-zoom-usage" xlink:href="#icon-zoom" class="sprite-symbol-usage" /></svg>